<svg xmlns="http://www.w3.org/2000/svg" viewBox="0 0 1716 128" preserveAspectRatio="none"><defs><linearGradient id="metal" x2="0" y2="1"><stop stop-color="#f1f6f8"/><stop offset=".28" stop-color="#c1d1d9"/><stop offset=".55" stop-color="#8096a3"/><stop offset=".8" stop-color="#344d5e"/><stop offset="1" stop-color="#aebfca"/></linearGradient></defs><g fill="url(#metal)"><path d="M18 0H1698L1704 5H1190L1180 3H536L526 5H12Z"/><path d="M12 5L3 17V110L24 128H415L434 121H25L9 107V18L18 5Z"/><path d="M1704 5L1713 17V110L1692 128H1301L1282 121H1691L1707 107V18L1698 5Z"/><path d="M434 121H1282L1294 126H422Z"/></g><g fill="none" stroke="#f1f5f7" stroke-width="1.5"><path d="M18 1H1698M4 18V108L25 125H414M1712 18V108L1691 125H1302"/></g><path d="M25 120H435M1281 120H1691" stroke="#263e4b" stroke-width="2"/></svg>