<svg xmlns="http://www.w3.org/2000/svg" viewBox="0 0 1760 176" preserveAspectRatio="none"><defs><linearGradient id="metal" x2="0" y2="1"><stop stop-color="#f5ffff"/><stop offset=".25" stop-color="#b6c7cb"/><stop offset=".5" stop-color="#4b606b"/><stop offset=".7" stop-color="#cad7d9"/><stop offset="1" stop-color="#77878a"/></linearGradient></defs><path d="M39 0H1721L1725 9H35Z" fill="url(#metal)"/><path d="M0 65L13 125L48 165H486L508 157H690L718 163H1219L1250 176H1706L1746 126L1760 64L1751 66L1737 120L1698 162H1255L1222 151H715L690 148H505L481 155H54L22 120L9 66Z" fill="url(#metal)"/><path d="M3 67L18 123L51 160H484L507 152M1255 166H1702L1741 122L1754 66M40 2H1720" fill="none" stroke="#edf5f5" stroke-width="3"/><path d="M10 67L25 119L57 150H479M1260 158H1694L1733 118L1748 67" fill="none" stroke="#334a56" stroke-width="3"/><path d="M245 158l4 6m5-6l4 6m5-6l4 6m1260 0l4 6m5-6l4 6m5-6l4 6" stroke="#586b72" stroke-width="2"/></svg>
