<svg xmlns="http://www.w3.org/2000/svg" width="2944" height="864" viewBox="0 1080 184 54"><path fill="#a9b8bc" fill-rule="evenodd" d="M34.78,1107.00L34.78,1107.00Q35.00,1107.00 35.00,1107.65L35.00,1109.35Q35.00,1110.00 35.44,1110.44L36.56,1111.56Q37.00,1112.00 37.00,1112.22L37.00,1112.78Q37.00,1113.00 36.56,1112.78L35.44,1112.22Q35.00,1112.00 35.00,1112.44L35.00,1113.56Q35.00,1114.00 35.22,1114.00L35.78,1114.00Q36.00,1114.00 36.16,1114.63L36.84,1117.37Q37.00,1118.00 37.52,1118.39L40.48,1120.61Q41.00,1121.00 41.00,1121.44L41.00,1122.56Q41.00,1123.00 41.46,1123.46L43.54,1125.54Q44.00,1126.00 44.63,1125.84L47.37,1125.16Q48.00,1125.00 48.22,1125.44L48.78,1126.56Q49.00,1127.00 48.35,1127.00L43.65,1127.00Q43.00,1127.00 42.58,1126.51L37.42,1120.49Q37.00,1120.00 36.56,1120.22L35.44,1120.78Q35.00,1121.00 35.13,1121.64L35.87,1125.36Q36.00,1126.00 35.37,1126.16L32.63,1126.84Q32.00,1127.00 32.11,1126.36L32.89,1121.64Q33.00,1121.00 32.78,1121.00L32.22,1121.00Q32.00,1121.00 32.00,1121.65L32.00,1124.35Q32.00,1125.00 31.78,1125.00L31.22,1125.00Q31.00,1125.00 31.00,1124.35L31.00,1120.65Q31.00,1120.00 31.22,1120.00L31.78,1120.00Q32.00,1120.00 31.98,1119.35L31.02,1091.65Q31.00,1091.00 31.44,1091.00L32.56,1091.00Q33.00,1091.00 33.04,1091.65L33.96,1106.35Q34.00,1107.00 34.22,1107.00ZM150.92,1110.65L150.92,1110.65Q151.00,1110.00 150.96,1109.35L150.04,1092.65Q150.00,1092.00 150.44,1091.78L151.56,1091.22Q152.00,1091.00 152.22,1091.22L152.78,1091.78Q153.00,1092.00 153.00,1092.65L153.00,1111.35Q153.00,1112.00 152.78,1112.00L152.22,1112.00Q152.00,1112.00 151.95,1112.65L151.05,1124.35Q151.00,1125.00 150.56,1125.44L149.44,1126.56Q149.00,1127.00 149.08,1126.35ZM142.44,1120.78L142.44,1120.78Q142.00,1121.00 141.67,1121.56L139.33,1125.44Q139.00,1126.00 138.35,1126.00L136.65,1126.00Q136.00,1126.00 136.00,1126.22L136.00,1126.78Q136.00,1127.00 135.56,1127.00L134.44,1127.00Q134.00,1127.00 134.00,1126.78L134.00,1126.22Q134.00,1126.00 134.49,1125.57L141.51,1119.43Q142.00,1119.00 142.00,1118.56L142.00,1117.44Q142.00,1117.00 142.54,1116.64L144.46,1115.36Q145.00,1115.00 145.00,1114.56L145.00,1113.44Q145.00,1113.00 145.44,1112.56L146.56,1111.44Q147.00,1111.00 147.00,1111.65L147.00,1113.35Q147.00,1114.00 146.78,1114.00L146.22,1114.00Q146.00,1114.00 145.79,1114.62L144.21,1119.38Q144.00,1120.00 143.56,1120.22ZM3.35,1086.00L3.35,1086.00Q4.00,1086.00 4.65,1086.00L6.35,1086.00Q7.00,1086.00 7.00,1086.22L7.00,1086.78Q7.00,1087.00 6.35,1087.00L4.65,1087.00Q4.00,1087.00 3.46,1087.36L1.54,1088.64Q1.00,1089.00 1.00,1088.35L1.00,1086.65Q1.00,1086.00 1.65,1086.00ZM30.00,1105.35L30.00,1105.35Q30.00,1106.00 30.00,1106.65L30.00,1112.35Q30.00,1113.00 29.78,1113.00L29.22,1113.00Q29.00,1113.00 29.00,1112.35L29.00,1090.65Q29.00,1090.00 29.44,1090.00L30.56,1090.00Q31.00,1090.00 30.78,1090.22L30.22,1090.78Q30.00,1091.00 30.00,1091.65ZM148.00,1096.65L148.00,1096.65Q148.00,1096.00 148.22,1096.00L148.78,1096.00Q149.00,1096.00 149.00,1096.65L149.00,1101.35Q149.00,1102.00 148.78,1102.00L148.22,1102.00Q148.00,1102.00 148.00,1101.35ZM30.00,1114.65L30.00,1114.65Q30.00,1114.00 30.22,1114.00L30.78,1114.00Q31.00,1114.00 31.00,1114.65L31.00,1118.35Q31.00,1119.00 30.78,1119.00L30.22,1119.00Q30.00,1119.00 30.00,1118.35Z"/><path fill="#626c71" fill-rule="evenodd" d="M34.46,1126.36L34.46,1126.36Q35.00,1126.00 35.44,1125.56L36.56,1124.44Q37.00,1124.00 36.84,1124.63L36.16,1127.37Q36.00,1128.00 35.35,1128.00L32.65,1128.00Q32.00,1128.00 32.54,1127.64ZM137.62,1127.79L137.62,1127.79Q137.00,1128.00 136.78,1127.56L136.22,1126.44Q136.00,1126.00 136.63,1125.84L139.37,1125.16Q140.00,1125.00 140.00,1124.56L140.00,1123.44Q140.00,1123.00 140.52,1122.61L143.48,1120.39Q144.00,1120.00 144.00,1119.56L144.00,1118.44Q144.00,1118.00 144.39,1117.48L146.61,1114.52Q147.00,1114.00 146.87,1113.36L146.13,1109.64Q146.00,1109.00 146.44,1109.22L147.56,1109.78Q148.00,1110.00 147.89,1109.36L147.11,1104.64Q147.00,1104.00 147.44,1103.56L148.56,1102.44Q149.00,1102.00 148.93,1101.35L148.07,1093.65Q148.00,1093.00 148.46,1092.54L150.54,1090.46Q151.00,1090.00 151.44,1090.00L152.56,1090.00Q153.00,1090.00 153.00,1090.44L153.00,1091.56Q153.00,1092.00 152.78,1091.78L152.22,1091.22Q152.00,1091.00 151.56,1091.22L150.44,1091.78Q150.00,1092.00 150.03,1092.65L150.97,1113.35Q151.00,1114.00 150.78,1114.00L150.22,1114.00Q150.00,1114.00 149.95,1114.65L149.05,1126.35Q149.00,1127.00 149.22,1127.00L149.78,1127.00Q150.00,1127.00 150.00,1126.56L150.00,1125.44Q150.00,1125.00 150.22,1125.00L150.78,1125.00Q151.00,1125.00 151.00,1125.44L151.00,1126.56Q151.00,1127.00 150.78,1127.22L150.22,1127.78Q150.00,1128.00 149.37,1127.84L146.63,1127.16Q146.00,1127.00 146.00,1126.35L146.00,1121.65Q146.00,1121.00 145.78,1121.00L145.22,1121.00Q145.00,1121.00 144.58,1121.50L140.42,1126.50Q140.00,1127.00 139.38,1127.21ZM125.44,1101.00L125.44,1101.00Q125.00,1101.00 124.56,1101.00L123.44,1101.00Q123.00,1101.00 123.00,1100.78L123.00,1100.22Q123.00,1100.00 123.65,1100.00L126.35,1100.00Q127.00,1100.00 127.00,1100.22L127.00,1100.78Q127.00,1101.00 126.56,1101.00ZM86.35,1086.00L86.35,1086.00Q87.00,1086.00 87.22,1086.00L87.78,1086.00Q88.00,1086.00 88.00,1086.44L88.00,1087.56Q88.00,1088.00 88.65,1088.00L108.35,1088.00Q109.00,1088.00 109.22,1088.44L109.78,1089.56Q110.00,1090.00 109.78,1090.22L109.22,1090.78Q109.00,1091.00 108.35,1091.00L72.65,1091.00Q72.00,1091.00 72.00,1090.35L72.00,1088.65Q72.00,1088.00 72.65,1088.00L76.35,1088.00Q77.00,1088.00 77.22,1087.56L77.78,1086.44Q78.00,1086.00 78.65,1086.00ZM4.62,1088.79L4.62,1088.79Q4.00,1089.00 3.38,1089.21L1.62,1089.79Q1.00,1090.00 1.22,1089.56L1.78,1088.44Q2.00,1088.00 2.63,1087.84L9.37,1086.16Q10.00,1086.00 10.00,1086.22L10.00,1086.78Q10.00,1087.00 9.38,1087.21ZM44.65,1128.00L44.65,1128.00Q44.00,1128.00 43.78,1127.78L43.22,1127.22Q43.00,1127.00 43.64,1126.91L49.36,1126.09Q50.00,1126.00 49.78,1126.44L49.22,1127.56Q49.00,1128.00 48.35,1128.00ZM57.44,1110.00L57.44,1110.00Q57.00,1110.00 56.78,1110.00L56.22,1110.00Q56.00,1110.00 56.00,1109.56L56.00,1108.44Q56.00,1108.00 56.65,1108.00L58.35,1108.00Q59.00,1108.00 59.00,1108.44L59.00,1109.56Q59.00,1110.00 58.56,1110.00ZM37.22,1121.78L37.22,1121.78Q37.00,1122.00 36.56,1122.00L35.44,1122.00Q35.00,1122.00 35.00,1121.78L35.00,1121.22Q35.00,1121.00 35.44,1120.78L36.56,1120.22Q37.00,1120.00 37.22,1120.22L37.78,1120.78Q38.00,1121.00 37.78,1121.22ZM140.78,1118.00L140.78,1118.00Q141.00,1118.00 141.44,1117.56L142.56,1116.44Q143.00,1116.00 143.00,1115.56L143.00,1114.44Q143.00,1114.00 143.44,1113.78L144.56,1113.22Q145.00,1113.00 145.00,1113.44L145.00,1114.56Q145.00,1115.00 144.46,1115.36L142.54,1116.64Q142.00,1117.00 142.00,1117.44L142.00,1118.56Q142.00,1119.00 141.56,1119.22L140.44,1119.78Q140.00,1120.00 140.00,1119.56L140.00,1118.44Q140.00,1118.00 140.22,1118.00ZM151.78,1119.78L151.78,1119.78Q152.00,1120.00 152.00,1120.44L152.00,1121.56Q152.00,1122.00 151.78,1122.00L151.22,1122.00Q151.00,1122.00 151.00,1121.35L151.00,1119.65Q151.00,1119.00 151.22,1119.22ZM155.22,1118.44L155.22,1118.44Q155.00,1118.00 155.65,1118.00L157.35,1118.00Q158.00,1118.00 158.00,1118.44L158.00,1119.56Q158.00,1120.00 157.56,1120.00L156.44,1120.00Q156.00,1120.00 155.78,1119.56ZM178.56,1096.78L178.56,1096.78Q179.00,1097.00 179.00,1097.44L179.00,1098.56Q179.00,1099.00 178.56,1099.00L177.44,1099.00Q177.00,1099.00 177.00,1098.35L177.00,1096.65Q177.00,1096.00 177.44,1096.22ZM132.63,1127.16L132.63,1127.16Q132.00,1127.00 132.22,1126.56L132.78,1125.44Q133.00,1125.00 133.44,1125.00L134.56,1125.00Q135.00,1125.00 135.44,1124.56L136.56,1123.44Q137.00,1123.00 136.54,1123.46L134.46,1125.54Q134.00,1126.00 134.44,1126.44L135.56,1127.56Q136.00,1128.00 135.37,1127.84ZM38.33,1122.56L38.33,1122.56Q38.00,1122.00 38.46,1122.46L42.54,1126.54Q43.00,1127.00 42.56,1127.00L41.44,1127.00Q41.00,1127.00 40.67,1126.44ZM17.44,1127.00L17.44,1127.00Q17.00,1127.00 16.56,1127.00L15.44,1127.00Q15.00,1127.00 15.21,1126.38L15.79,1124.62Q16.00,1124.00 16.62,1124.21L18.38,1124.79Q19.00,1125.00 19.00,1125.44L19.00,1126.56Q19.00,1127.00 18.56,1127.00ZM126.56,1127.00L126.56,1127.00Q127.00,1127.00 127.00,1127.44L127.00,1128.56Q127.00,1129.00 126.78,1129.00L126.22,1129.00Q126.00,1129.00 125.78,1128.56L125.22,1127.44Q125.00,1127.00 125.44,1127.00ZM36.16,1110.63L36.16,1110.63Q36.00,1110.00 36.22,1110.00L36.78,1110.00Q37.00,1110.00 37.16,1110.63L37.84,1113.37Q38.00,1114.00 37.78,1114.00L37.22,1114.00Q37.00,1114.00 36.84,1113.37ZM29.78,1113.00L29.78,1113.00Q30.00,1113.00 30.00,1113.65L30.00,1116.35Q30.00,1117.00 29.78,1117.00L29.22,1117.00Q29.00,1117.00 29.00,1116.35L29.00,1113.65Q29.00,1113.00 29.22,1113.00ZM152.00,1113.65L152.00,1113.65Q152.00,1113.00 152.22,1112.78L152.78,1112.22Q153.00,1112.00 153.00,1112.65L153.00,1115.35Q153.00,1116.00 152.78,1116.00L152.22,1116.00Q152.00,1116.00 152.00,1115.35ZM137.22,1122.22L137.22,1122.22Q137.00,1122.00 137.54,1121.64L139.46,1120.36Q140.00,1120.00 139.64,1120.54L138.36,1122.46Q138.00,1123.00 137.78,1122.78ZM30.56,1089.00L30.56,1089.00Q31.00,1089.00 31.54,1089.36L33.46,1090.64Q34.00,1091.00 34.00,1091.65L34.00,1094.35Q34.00,1095.00 33.78,1095.00L33.22,1095.00Q33.00,1095.00 33.00,1094.35L33.00,1091.65Q33.00,1091.00 32.37,1090.84L29.63,1090.16Q29.00,1090.00 29.00,1089.78L29.00,1089.22Q29.00,1089.00 29.44,1089.00ZM34.00,1104.65L34.00,1104.65Q34.00,1104.00 34.00,1103.35L34.00,1101.65Q34.00,1101.00 34.22,1101.00L34.78,1101.00Q35.00,1101.00 35.00,1101.65L35.00,1106.35Q35.00,1107.00 34.78,1107.00L34.22,1107.00Q34.00,1107.00 34.00,1106.35ZM30.22,1123.00L30.22,1123.00Q30.00,1123.00 30.00,1122.35L30.00,1119.65Q30.00,1119.00 30.22,1119.00L30.78,1119.00Q31.00,1119.00 31.00,1119.65L31.00,1122.35Q31.00,1123.00 30.78,1123.00Z"/><path fill="#292e32" fill-rule="evenodd" d="M11.65,1126.00L11.65,1126.00Q11.00,1126.00 10.56,1126.00L9.44,1126.00Q9.00,1126.00 9.00,1125.35L9.00,1116.65Q9.00,1116.00 8.78,1116.00L8.22,1116.00Q8.00,1116.00 7.96,1115.35L7.04,1101.65Q7.00,1101.00 6.78,1101.00L6.22,1101.00Q6.00,1101.00 6.00,1100.35L6.00,1092.65Q6.00,1092.00 6.22,1091.78L6.78,1091.22Q7.00,1091.00 6.56,1090.78L5.44,1090.22Q5.00,1090.00 5.00,1089.56L5.00,1088.44Q5.00,1088.00 5.65,1088.00L7.35,1088.00Q8.00,1088.00 8.44,1087.56L9.56,1086.44Q10.00,1086.00 10.65,1086.00L18.35,1086.00Q19.00,1086.00 18.87,1086.64L18.13,1090.36Q18.00,1091.00 18.22,1091.00L18.78,1091.00Q19.00,1091.00 19.07,1091.65L19.93,1099.35Q20.00,1100.00 20.22,1100.00L20.78,1100.00Q21.00,1100.00 21.00,1100.65L21.00,1103.35Q21.00,1104.00 21.22,1104.00L21.78,1104.00Q22.00,1104.00 22.00,1104.65L22.00,1110.35Q22.00,1111.00 22.22,1111.00L22.78,1111.00Q23.00,1111.00 23.06,1111.65L23.94,1121.35Q24.00,1122.00 24.22,1122.00L24.78,1122.00Q25.00,1122.00 25.11,1122.64L25.89,1127.36Q26.00,1128.00 25.35,1128.00L17.65,1128.00Q17.00,1128.00 17.00,1127.78L17.00,1127.22Q17.00,1127.00 17.44,1127.00L18.56,1127.00Q19.00,1127.00 18.79,1126.38L18.21,1124.62Q18.00,1124.00 17.56,1124.00L16.44,1124.00Q16.00,1124.00 15.78,1124.44L15.22,1125.56Q15.00,1126.00 14.35,1126.00ZM176.13,1116.36L176.13,1116.36Q176.00,1117.00 176.22,1117.00L176.78,1117.00Q177.00,1117.00 177.00,1117.65L177.00,1119.35Q177.00,1120.00 176.56,1120.00L175.44,1120.00Q175.00,1120.00 175.22,1119.78L175.78,1119.22Q176.00,1119.00 175.78,1118.78L175.22,1118.22Q175.00,1118.00 175.04,1117.35L175.96,1103.65Q176.00,1103.00 176.22,1103.00L176.78,1103.00Q177.00,1103.00 177.07,1103.65L177.93,1111.35Q178.00,1112.00 177.78,1112.00L177.22,1112.00Q177.00,1112.00 176.87,1112.64ZM154.00,1104.35L154.00,1104.35Q154.00,1105.00 153.78,1105.00L153.22,1105.00Q153.00,1105.00 153.00,1104.35L153.00,1100.65Q153.00,1100.00 153.22,1100.00L153.78,1100.00Q154.00,1100.00 154.00,1100.65ZM90.35,1111.02L90.35,1111.02Q91.00,1111.00 91.65,1111.00L102.35,1111.00Q103.00,1111.00 103.00,1111.22L103.00,1111.78Q103.00,1112.00 103.65,1112.00L110.35,1112.00Q111.00,1112.00 111.00,1112.22L111.00,1112.78Q111.00,1113.00 111.64,1112.87L120.36,1111.13Q121.00,1111.00 120.54,1111.46L118.46,1113.54Q118.00,1114.00 117.35,1114.06L107.65,1114.94Q107.00,1115.00 106.46,1114.64L104.54,1113.36Q104.00,1113.00 103.35,1113.00L98.65,1113.00Q98.00,1113.00 98.44,1113.44L99.56,1114.56Q100.00,1115.00 100.00,1115.44L100.00,1116.56Q100.00,1117.00 99.56,1117.00L98.44,1117.00Q98.00,1117.00 97.59,1117.51L94.41,1121.49Q94.00,1122.00 93.35,1122.00L77.65,1122.00Q77.00,1122.00 77.00,1122.44L77.00,1123.56Q77.00,1124.00 76.35,1124.00L71.65,1124.00Q71.00,1124.00 71.00,1124.44L71.00,1125.56Q71.00,1126.00 70.37,1126.16L67.63,1126.84Q67.00,1127.00 67.00,1127.44L67.00,1128.56Q67.00,1129.00 66.35,1128.95L55.65,1128.05Q55.00,1128.00 55.00,1127.35L55.00,1124.65Q55.00,1124.00 54.78,1124.00L54.22,1124.00Q54.00,1124.00 54.00,1123.35L54.00,1120.65Q54.00,1120.00 53.78,1120.00L53.22,1120.00Q53.00,1120.00 52.84,1119.37L52.16,1116.63Q52.00,1116.00 51.56,1116.00L50.44,1116.00Q50.00,1116.00 50.00,1115.56L50.00,1114.44Q50.00,1114.00 49.54,1113.54L40.46,1104.46Q40.00,1104.00 39.95,1103.35L39.05,1092.65Q39.00,1092.00 39.62,1091.79L41.38,1091.21Q42.00,1091.00 42.44,1091.44L43.56,1092.56Q44.00,1093.00 44.24,1093.60L45.76,1097.40Q46.00,1098.00 46.46,1098.46L54.54,1106.54Q55.00,1107.00 55.44,1107.00L56.56,1107.00Q57.00,1107.00 56.79,1107.62L56.21,1109.38Q56.00,1110.00 56.65,1110.00L58.35,1110.00Q59.00,1110.00 59.00,1109.56L59.00,1108.44Q59.00,1108.00 59.22,1108.00L59.78,1108.00Q60.00,1108.00 60.00,1108.44L60.00,1109.56Q60.00,1110.00 60.54,1110.36L62.46,1111.64Q63.00,1112.00 63.65,1111.98ZM136.36,1123.46L136.36,1123.46Q136.00,1124.00 135.78,1123.78L135.22,1123.22Q135.00,1123.00 135.54,1122.64L137.46,1121.36Q138.00,1121.00 137.64,1121.54ZM177.00,1094.44L177.00,1094.44Q177.00,1094.00 177.44,1093.56L178.56,1092.44Q179.00,1092.00 179.00,1092.65L179.00,1096.35Q179.00,1097.00 178.56,1096.78L177.44,1096.22Q177.00,1096.00 177.00,1095.56ZM154.00,1097.35L154.00,1097.35Q154.00,1098.00 153.78,1098.00L153.22,1098.00Q153.00,1098.00 153.00,1097.35L153.00,1091.65Q153.00,1091.00 153.22,1091.00L153.78,1091.00Q154.00,1091.00 154.00,1091.65ZM100.65,1092.00L100.65,1092.00Q100.00,1092.00 99.35,1092.00L92.65,1092.00Q92.00,1092.00 92.00,1091.78L92.00,1091.22Q92.00,1091.00 92.65,1091.00L107.35,1091.00Q108.00,1091.00 108.00,1091.22L108.00,1091.78Q108.00,1092.00 107.35,1092.00ZM5.00,1118.44L5.00,1118.44Q5.00,1118.00 5.22,1117.78L5.78,1117.22Q6.00,1117.00 6.00,1117.65L6.00,1119.35Q6.00,1120.00 5.78,1120.00L5.22,1120.00Q5.00,1120.00 5.00,1119.56ZM90.35,1086.00L90.35,1086.00Q91.00,1086.00 91.00,1086.22L91.00,1086.78Q91.00,1087.00 91.65,1087.00L96.35,1087.00Q97.00,1087.00 97.00,1087.22L97.00,1087.78Q97.00,1088.00 96.35,1088.00L88.65,1088.00Q88.00,1088.00 88.00,1087.56L88.00,1086.44Q88.00,1086.00 88.65,1086.00ZM145.65,1128.00L145.65,1128.00Q145.00,1128.00 144.89,1127.36L144.11,1122.64Q144.00,1122.00 144.44,1121.78L145.56,1121.22Q146.00,1121.00 146.00,1121.65L146.00,1126.35Q146.00,1127.00 146.44,1127.00L147.56,1127.00Q148.00,1127.00 148.00,1127.22L148.00,1127.78Q148.00,1128.00 147.35,1128.00ZM38.44,1124.22L38.44,1124.22Q38.00,1124.00 38.00,1123.78L38.00,1123.22Q38.00,1123.00 37.56,1123.22L36.44,1123.78Q36.00,1124.00 36.00,1123.56L36.00,1122.44Q36.00,1122.00 36.44,1122.00L37.56,1122.00Q38.00,1122.00 38.44,1122.44L39.56,1123.56Q40.00,1124.00 40.00,1124.22L40.00,1124.78Q40.00,1125.00 39.56,1124.78ZM85.65,1092.00L85.65,1092.00Q85.00,1092.00 84.35,1092.00L74.65,1092.00Q74.00,1092.00 74.00,1091.78L74.00,1091.22Q74.00,1091.00 74.65,1091.00L90.35,1091.00Q91.00,1091.00 91.00,1091.22L91.00,1091.78Q91.00,1092.00 90.35,1092.00ZM3.91,1112.36L3.91,1112.36Q4.00,1113.00 3.78,1113.22L3.22,1113.78Q3.00,1114.00 3.00,1113.35L3.00,1110.65Q3.00,1110.00 2.56,1110.00L1.44,1110.00Q1.00,1110.00 1.00,1109.35L1.00,1098.65Q1.00,1098.00 1.22,1098.00L1.78,1098.00Q2.00,1098.00 2.09,1098.64ZM29.00,1105.35L29.00,1105.35Q29.00,1106.00 29.00,1106.65L29.00,1113.35Q29.00,1114.00 28.78,1114.00L28.22,1114.00Q28.00,1114.00 28.00,1113.35L28.00,1090.65Q28.00,1090.00 28.22,1090.00L28.78,1090.00Q29.00,1090.00 29.00,1090.65ZM155.00,1117.22L155.00,1117.22Q155.00,1117.00 155.65,1117.00L157.35,1117.00Q158.00,1117.00 158.00,1117.22L158.00,1117.78Q158.00,1118.00 157.35,1118.00L155.65,1118.00Q155.00,1118.00 155.00,1117.78ZM180.22,1110.00L180.22,1110.00Q180.00,1110.00 180.00,1109.35L180.00,1107.65Q180.00,1107.00 180.22,1107.00L180.78,1107.00Q181.00,1107.00 181.00,1107.65L181.00,1109.35Q181.00,1110.00 180.78,1110.00ZM34.00,1093.65L34.00,1093.65Q34.00,1093.00 33.79,1092.38L33.21,1090.62Q33.00,1090.00 33.44,1090.22L34.56,1090.78Q35.00,1091.00 35.00,1091.65L35.00,1100.35Q35.00,1101.00 34.78,1101.00L34.22,1101.00Q34.00,1101.00 34.00,1100.35ZM73.36,1094.92L73.36,1094.92Q74.00,1095.00 74.65,1095.07L82.35,1095.93Q83.00,1096.00 83.13,1096.64L83.87,1100.36Q84.00,1101.00 83.56,1100.78L82.44,1100.22Q82.00,1100.00 82.00,1099.56L82.00,1098.44Q82.00,1098.00 81.40,1098.24L77.60,1099.76Q77.00,1100.00 76.45,1099.66L69.55,1095.34Q69.00,1095.00 68.35,1095.00L66.65,1095.00Q66.00,1095.00 66.00,1094.78L66.00,1094.22Q66.00,1094.00 66.64,1094.08ZM73.35,1117.00L73.35,1117.00Q74.00,1117.00 74.63,1116.84L77.37,1116.16Q78.00,1116.00 78.52,1115.61L81.48,1113.39Q82.00,1113.00 81.35,1113.03L63.65,1113.97Q63.00,1114.00 62.56,1113.56L61.44,1112.44Q61.00,1112.00 60.35,1112.00L57.65,1112.00Q57.00,1112.00 57.22,1112.44L57.78,1113.56Q58.00,1114.00 58.44,1114.00L59.56,1114.00Q60.00,1114.00 60.22,1114.44L60.78,1115.56Q61.00,1116.00 61.65,1116.00L63.35,1116.00Q64.00,1116.00 64.00,1116.22L64.00,1116.78Q64.00,1117.00 64.65,1117.00ZM29.22,1120.00L29.22,1120.00Q29.00,1120.00 29.00,1119.35L29.00,1117.65Q29.00,1117.00 29.22,1117.00L29.78,1117.00Q30.00,1117.00 30.00,1117.65L30.00,1119.35Q30.00,1120.00 29.78,1120.00ZM126.35,1101.00L126.35,1101.00Q127.00,1101.00 127.00,1101.22L127.00,1101.78Q127.00,1102.00 126.35,1102.00L122.65,1102.00Q122.00,1102.00 122.21,1101.38L122.79,1099.62Q123.00,1099.00 123.65,1099.00L126.35,1099.00Q127.00,1099.00 127.00,1099.22L127.00,1099.78Q127.00,1100.00 126.35,1100.00L123.65,1100.00Q123.00,1100.00 123.00,1100.22L123.00,1100.78Q123.00,1101.00 123.65,1101.00ZM21.44,1087.00L21.44,1087.00Q21.00,1087.00 21.00,1086.78L21.00,1086.22Q21.00,1086.00 21.65,1086.00L24.35,1086.00Q25.00,1086.00 25.00,1086.65L25.00,1089.35Q25.00,1090.00 24.56,1090.00L23.44,1090.00Q23.00,1090.00 23.00,1089.35L23.00,1087.65Q23.00,1087.00 22.56,1087.00ZM49.65,1093.00L49.65,1093.00Q49.00,1093.00 48.56,1093.00L47.44,1093.00Q47.00,1093.00 47.00,1092.56L47.00,1091.44Q47.00,1091.00 47.65,1091.00L51.35,1091.00Q52.00,1091.00 52.00,1091.44L52.00,1092.56Q52.00,1093.00 51.35,1093.00ZM148.00,1103.35L148.00,1103.35Q148.00,1104.00 147.78,1104.00L147.22,1104.00Q147.00,1104.00 147.00,1103.35L147.00,1094.65Q147.00,1094.00 147.22,1094.00L147.78,1094.00Q148.00,1094.00 148.00,1094.65ZM152.22,1118.22L152.22,1118.22Q152.00,1118.00 152.00,1117.56L152.00,1116.44Q152.00,1116.00 152.22,1116.00L152.78,1116.00Q153.00,1116.00 153.00,1116.65L153.00,1118.35Q153.00,1119.00 152.78,1118.78ZM31.00,1086.78L31.00,1086.78Q31.00,1087.00 30.35,1087.00L27.65,1087.00Q27.00,1087.00 27.00,1086.78L27.00,1086.22Q27.00,1086.00 27.65,1086.00L30.35,1086.00Q31.00,1086.00 31.00,1086.22ZM30.00,1124.44L30.00,1124.44Q30.00,1124.00 30.22,1123.78L30.78,1123.22Q31.00,1123.00 31.00,1123.65L31.00,1125.35Q31.00,1126.00 30.78,1126.00L30.22,1126.00Q30.00,1126.00 30.00,1125.56ZM1.78,1090.44L1.78,1090.44Q2.00,1090.00 2.44,1089.78L3.56,1089.22Q4.00,1089.00 3.79,1089.62L3.21,1091.38Q3.00,1092.00 2.56,1092.00L1.44,1092.00Q1.00,1092.00 1.22,1091.56ZM65.00,1088.78L65.00,1088.78Q65.00,1089.00 64.35,1089.00L62.65,1089.00Q62.00,1089.00 62.00,1088.78L62.00,1088.22Q62.00,1088.00 62.65,1088.00L64.35,1088.00Q65.00,1088.00 65.00,1088.22Z"/><path fill="#07090b" fill-rule="evenodd" d="M64.78,1097.22L64.78,1097.22Q65.00,1097.00 65.00,1096.78L65.00,1096.22Q65.00,1096.00 64.37,1095.84L61.63,1095.16Q61.00,1095.00 61.00,1095.44L61.00,1096.56Q61.00,1097.00 61.65,1097.00L63.35,1097.00Q64.00,1097.00 64.00,1097.22L64.00,1097.78Q64.00,1098.00 64.22,1097.78ZM27.78,1127.00L27.78,1127.00Q28.00,1127.00 28.62,1126.79L30.38,1126.21Q31.00,1126.00 31.00,1126.44L31.00,1127.56Q31.00,1128.00 30.35,1128.00L26.65,1128.00Q26.00,1128.00 26.00,1127.35L26.00,1125.65Q26.00,1125.00 25.64,1124.46L24.36,1122.54Q24.00,1122.00 23.94,1121.35L23.06,1111.65Q23.00,1111.00 22.78,1111.00L22.22,1111.00Q22.00,1111.00 22.00,1110.35L22.00,1104.65Q22.00,1104.00 21.78,1104.00L21.22,1104.00Q21.00,1104.00 20.93,1103.35L20.07,1095.65Q20.00,1095.00 19.78,1095.00L19.22,1095.00Q19.00,1095.00 19.00,1094.35L19.00,1091.65Q19.00,1091.00 18.78,1091.00L18.22,1091.00Q18.00,1091.00 18.00,1090.56L18.00,1089.44Q18.00,1089.00 18.63,1089.16L21.37,1089.84Q22.00,1090.00 22.00,1089.56L22.00,1088.44Q22.00,1088.00 22.22,1088.00L22.78,1088.00Q23.00,1088.00 23.00,1088.44L23.00,1089.56Q23.00,1090.00 23.44,1090.00L24.56,1090.00Q25.00,1090.00 25.21,1090.62L25.79,1092.38Q26.00,1093.00 26.44,1093.00L27.56,1093.00Q28.00,1093.00 28.00,1093.65L28.00,1095.35Q28.00,1096.00 27.78,1096.00L27.22,1096.00Q27.00,1096.00 27.22,1096.22L27.78,1096.78Q28.00,1097.00 28.00,1097.65L28.00,1113.35Q28.00,1114.00 28.22,1114.00L28.78,1114.00Q29.00,1114.00 29.00,1114.65L29.00,1119.35Q29.00,1120.00 29.22,1120.00L29.78,1120.00Q30.00,1120.00 30.00,1120.65L30.00,1123.35Q30.00,1124.00 29.35,1124.00L27.65,1124.00Q27.00,1124.00 27.00,1124.65L27.00,1126.35Q27.00,1127.00 27.22,1127.00ZM99.56,1117.00L99.56,1117.00Q100.00,1117.00 100.00,1116.56L100.00,1115.44Q100.00,1115.00 99.56,1114.56L98.44,1113.44Q98.00,1113.00 98.65,1113.00L103.35,1113.00Q104.00,1113.00 104.54,1113.36L106.46,1114.64Q107.00,1115.00 107.65,1115.00L114.35,1115.00Q115.00,1115.00 115.00,1114.78L115.00,1114.22Q115.00,1114.00 115.64,1113.87L119.36,1113.13Q120.00,1113.00 120.36,1112.46L121.64,1110.54Q122.00,1110.00 121.38,1110.18L115.62,1111.82Q115.00,1112.00 115.00,1112.22L115.00,1112.78Q115.00,1113.00 114.35,1112.95L103.65,1112.05Q103.00,1112.00 103.00,1111.78L103.00,1111.22Q103.00,1111.00 102.35,1111.02L63.65,1111.98Q63.00,1112.00 62.46,1111.64L60.54,1110.36Q60.00,1110.00 60.00,1109.56L60.00,1108.44Q60.00,1108.00 59.36,1107.87L55.64,1107.13Q55.00,1107.00 54.54,1106.54L46.46,1098.46Q46.00,1098.00 45.76,1097.40L44.24,1093.60Q44.00,1093.00 43.56,1092.56L42.44,1091.44Q42.00,1091.00 41.56,1091.00L40.44,1091.00Q40.00,1091.00 39.78,1091.22L39.22,1091.78Q39.00,1092.00 39.05,1092.65L39.95,1103.35Q40.00,1104.00 40.54,1104.36L42.46,1105.64Q43.00,1106.00 43.00,1106.44L43.00,1107.56Q43.00,1108.00 43.44,1108.00L44.56,1108.00Q45.00,1108.00 45.00,1108.44L45.00,1109.56Q45.00,1110.00 45.51,1110.41L49.49,1113.59Q50.00,1114.00 50.00,1114.44L50.00,1115.56Q50.00,1116.00 50.44,1116.00L51.56,1116.00Q52.00,1116.00 52.00,1116.44L52.00,1117.56Q52.00,1118.00 52.44,1118.44L53.56,1119.56Q54.00,1120.00 54.08,1120.64L54.92,1127.36Q55.00,1128.00 54.35,1128.00L51.65,1128.00Q51.00,1128.00 50.79,1127.38L50.21,1125.62Q50.00,1125.00 49.56,1125.00L48.44,1125.00Q48.00,1125.00 47.54,1124.54L42.46,1119.46Q42.00,1119.00 42.00,1118.56L42.00,1117.44Q42.00,1117.00 41.48,1116.61L38.52,1114.39Q38.00,1114.00 38.00,1113.56L38.00,1112.44Q38.00,1112.00 37.56,1111.56L36.44,1110.44Q36.00,1110.00 35.97,1109.35L35.03,1091.65Q35.00,1091.00 34.78,1090.78L34.22,1090.22Q34.00,1090.00 34.65,1090.00L64.35,1090.00Q65.00,1090.00 65.00,1090.22L65.00,1090.78Q65.00,1091.00 65.62,1090.79L67.38,1090.21Q68.00,1090.00 67.79,1090.62L67.21,1092.38Q67.00,1093.00 67.44,1093.00L68.56,1093.00Q69.00,1093.00 69.00,1092.35L69.00,1090.65Q69.00,1090.00 69.54,1090.36L71.46,1091.64Q72.00,1092.00 71.78,1091.78L71.22,1091.22Q71.00,1091.00 71.22,1090.78L71.78,1090.22Q72.00,1090.00 72.44,1090.44L73.56,1091.56Q74.00,1092.00 74.65,1092.00L82.35,1092.00Q83.00,1092.00 83.00,1092.44L83.00,1093.56Q83.00,1094.00 83.54,1093.64L85.46,1092.36Q86.00,1092.00 86.65,1092.00L90.35,1092.00Q91.00,1092.00 91.00,1091.78L91.00,1091.22Q91.00,1091.00 91.22,1091.00L91.78,1091.00Q92.00,1091.00 91.79,1091.62L91.21,1093.38Q91.00,1094.00 91.44,1094.00L92.56,1094.00Q93.00,1094.00 93.00,1093.56L93.00,1092.44Q93.00,1092.00 93.65,1092.00L107.35,1092.00Q108.00,1092.00 108.44,1091.56L109.56,1090.44Q110.00,1090.00 110.65,1090.00L128.35,1090.00Q129.00,1090.00 129.00,1089.78L129.00,1089.22Q129.00,1089.00 128.35,1089.00L118.65,1089.00Q118.00,1089.00 118.00,1088.78L118.00,1088.22Q118.00,1088.00 118.65,1088.00L140.35,1088.00Q141.00,1088.00 140.78,1088.44L140.22,1089.56Q140.00,1090.00 140.65,1090.00L148.35,1090.00Q149.00,1090.00 149.00,1090.44L149.00,1091.56Q149.00,1092.00 148.56,1092.44L147.44,1093.56Q147.00,1094.00 147.00,1094.65L147.00,1106.35Q147.00,1107.00 146.56,1107.44L145.44,1108.56Q145.00,1109.00 145.00,1109.65L145.00,1111.35Q145.00,1112.00 144.54,1112.46L141.46,1115.54Q141.00,1116.00 141.00,1116.44L141.00,1117.56Q141.00,1118.00 140.54,1118.46L133.46,1125.54Q133.00,1126.00 132.35,1126.00L124.65,1126.00Q124.00,1126.00 124.00,1126.44L124.00,1127.56Q124.00,1128.00 123.35,1128.00L121.65,1128.00Q121.00,1128.00 121.00,1127.78L121.00,1127.22Q121.00,1127.00 121.44,1127.00L122.56,1127.00Q123.00,1127.00 123.00,1126.78L123.00,1126.22Q123.00,1126.00 122.56,1126.00L121.44,1126.00Q121.00,1126.00 121.00,1125.35L121.00,1122.65Q121.00,1122.00 120.35,1122.00L115.65,1122.00Q115.00,1122.00 115.00,1122.44L115.00,1123.56Q115.00,1124.00 114.35,1124.00L111.65,1124.00Q111.00,1124.00 111.00,1123.56L111.00,1122.44Q111.00,1122.00 110.35,1122.00L101.65,1122.00Q101.00,1122.00 101.00,1121.56L101.00,1120.44Q101.00,1120.00 100.35,1120.00L97.65,1120.00Q97.00,1120.00 97.00,1120.44L97.00,1121.56Q97.00,1122.00 96.35,1122.00L94.65,1122.00Q94.00,1122.00 94.41,1121.49L97.59,1117.51Q98.00,1117.00 98.44,1117.00ZM139.00,1113.65L139.00,1113.65Q139.00,1113.00 138.56,1113.00L137.44,1113.00Q137.00,1113.00 137.00,1113.65L137.00,1115.35Q137.00,1116.00 137.44,1116.00L138.56,1116.00Q139.00,1116.00 139.00,1115.35ZM157.65,1126.00L157.65,1126.00Q157.00,1126.00 156.35,1126.00L153.65,1126.00Q153.00,1126.00 153.00,1126.22L153.00,1126.78Q153.00,1127.00 153.65,1127.00L156.35,1127.00Q157.00,1127.00 157.00,1127.22L157.00,1127.78Q157.00,1128.00 156.35,1128.00L151.65,1128.00Q151.00,1128.00 151.07,1127.35L151.93,1119.65Q152.00,1119.00 152.22,1119.00L152.78,1119.00Q153.00,1119.00 153.02,1118.35L153.98,1092.65Q154.00,1092.00 154.22,1092.00L154.78,1092.00Q155.00,1092.00 155.00,1091.56L155.00,1090.44Q155.00,1090.00 155.65,1090.00L162.35,1090.00Q163.00,1090.00 163.00,1090.44L163.00,1091.56Q163.00,1092.00 163.64,1091.89L168.36,1091.11Q169.00,1091.00 169.00,1090.78L169.00,1090.22Q169.00,1090.00 169.65,1090.00L171.35,1090.00Q172.00,1090.00 172.00,1090.22L172.00,1090.78Q172.00,1091.00 172.62,1090.79L174.38,1090.21Q175.00,1090.00 175.00,1090.44L175.00,1091.56Q175.00,1092.00 175.65,1092.00L177.35,1092.00Q178.00,1092.00 177.87,1092.64L177.13,1096.36Q177.00,1097.00 176.78,1097.00L176.22,1097.00Q176.00,1097.00 176.11,1097.64L176.89,1102.36Q177.00,1103.00 176.78,1103.00L176.22,1103.00Q176.00,1103.00 175.96,1103.65L175.04,1120.35Q175.00,1121.00 174.56,1121.44L173.44,1122.56Q173.00,1123.00 172.56,1122.78L171.44,1122.22Q171.00,1122.00 171.22,1122.44L171.78,1123.56Q172.00,1124.00 171.78,1124.00L171.22,1124.00Q171.00,1124.00 171.00,1124.44L171.00,1125.56Q171.00,1126.00 170.56,1126.00L169.44,1126.00Q169.00,1126.00 169.00,1126.44L169.00,1127.56Q169.00,1128.00 168.35,1128.00L165.65,1128.00Q165.00,1128.00 165.54,1127.64L167.46,1126.36Q168.00,1126.00 167.35,1126.00ZM127.36,1101.11L127.36,1101.11Q128.00,1101.00 127.78,1100.56L127.22,1099.44Q127.00,1099.00 126.36,1099.13L122.64,1099.87Q122.00,1100.00 122.00,1100.44L122.00,1101.56Q122.00,1102.00 122.64,1101.89ZM76.62,1115.79L76.62,1115.79Q76.00,1116.00 75.78,1116.22L75.22,1116.78Q75.00,1117.00 74.35,1117.00L64.65,1117.00Q64.00,1117.00 64.00,1116.78L64.00,1116.22Q64.00,1116.00 63.35,1116.00L61.65,1116.00Q61.00,1116.00 60.78,1115.56L60.22,1114.44Q60.00,1114.00 59.56,1114.00L58.44,1114.00Q58.00,1114.00 57.78,1113.56L57.22,1112.44Q57.00,1112.00 57.65,1112.00L60.35,1112.00Q61.00,1112.00 61.44,1112.44L62.56,1113.56Q63.00,1114.00 63.65,1113.97L81.35,1113.03Q82.00,1113.00 82.00,1113.22L82.00,1113.78Q82.00,1114.00 81.38,1114.21ZM69.64,1094.09L69.64,1094.09Q69.00,1094.00 68.35,1094.00L66.65,1094.00Q66.00,1094.00 66.00,1094.22L66.00,1094.78Q66.00,1095.00 66.65,1095.00L68.35,1095.00Q69.00,1095.00 69.55,1095.34L76.45,1099.66Q77.00,1100.00 77.60,1099.76L81.40,1098.24Q82.00,1098.00 82.00,1098.44L82.00,1099.56Q82.00,1100.00 82.44,1100.22L83.56,1100.78Q84.00,1101.00 83.87,1100.36L83.13,1096.64Q83.00,1096.00 82.36,1095.91ZM156.56,1120.00L156.56,1120.00Q157.00,1120.00 157.44,1120.00L158.56,1120.00Q159.00,1120.00 159.00,1119.56L159.00,1118.44Q159.00,1118.00 158.37,1117.84L155.63,1117.16Q155.00,1117.00 155.00,1117.65L155.00,1119.35Q155.00,1120.00 155.44,1120.00ZM38.56,1124.56L38.56,1124.56Q39.00,1125.00 39.44,1125.22L40.56,1125.78Q41.00,1126.00 41.00,1126.44L41.00,1127.56Q41.00,1128.00 40.78,1128.00L40.22,1128.00Q40.00,1128.00 40.00,1127.56L40.00,1126.44Q40.00,1126.00 39.56,1126.00L38.44,1126.00Q38.00,1126.00 38.22,1126.44L38.78,1127.56Q39.00,1128.00 38.56,1127.78L37.44,1127.22Q37.00,1127.00 37.00,1126.35L37.00,1123.65Q37.00,1123.00 37.44,1123.44ZM3.16,1106.63L3.16,1106.63Q3.00,1106.00 2.84,1105.37L2.16,1102.63Q2.00,1102.00 2.22,1102.00L2.78,1102.00Q3.00,1102.00 3.00,1101.35L3.00,1098.65Q3.00,1098.00 3.44,1098.00L4.56,1098.00Q5.00,1098.00 5.00,1097.35L5.00,1092.65Q5.00,1092.00 5.22,1092.00L5.78,1092.00Q6.00,1092.00 6.00,1092.65L6.00,1100.35Q6.00,1101.00 6.22,1101.00L6.78,1101.00Q7.00,1101.00 7.07,1101.65L8.93,1119.35Q9.00,1120.00 8.56,1120.00L7.44,1120.00Q7.00,1120.00 7.22,1119.56L7.78,1118.44Q8.00,1118.00 7.38,1117.79L5.62,1117.21Q5.00,1117.00 5.00,1116.35L5.00,1113.65Q5.00,1113.00 5.36,1113.54L6.64,1115.46Q7.00,1116.00 7.00,1115.35L7.00,1112.65Q7.00,1112.00 6.56,1112.00L5.44,1112.00Q5.00,1112.00 5.00,1111.78L5.00,1111.22Q5.00,1111.00 5.44,1111.00L6.56,1111.00Q7.00,1111.00 6.89,1110.36L6.11,1105.64Q6.00,1105.00 5.56,1104.78L4.44,1104.22Q4.00,1104.00 4.11,1104.64L4.89,1109.36Q5.00,1110.00 4.78,1110.00L4.22,1110.00Q4.00,1110.00 3.84,1109.37ZM144.22,1126.00L144.22,1126.00Q144.00,1126.00 143.56,1126.00L142.44,1126.00Q142.00,1126.00 142.00,1125.78L142.00,1125.22Q142.00,1125.00 142.54,1124.64L144.46,1123.36Q145.00,1123.00 145.00,1123.65L145.00,1125.35Q145.00,1126.00 144.78,1126.00ZM42.35,1088.00L42.35,1088.00Q43.00,1088.00 43.00,1088.22L43.00,1088.78Q43.00,1089.00 42.35,1089.00L40.65,1089.00Q40.00,1089.00 40.00,1088.78L40.00,1088.22Q40.00,1088.00 40.65,1088.00ZM49.65,1091.00L49.65,1091.00Q49.00,1091.00 48.56,1091.00L47.44,1091.00Q47.00,1091.00 47.00,1091.44L47.00,1092.56Q47.00,1093.00 47.65,1093.00L51.35,1093.00Q52.00,1093.00 52.00,1092.56L52.00,1091.44Q52.00,1091.00 51.35,1091.00ZM27.22,1120.78L27.22,1120.78Q27.00,1121.00 27.00,1121.22L27.00,1121.78Q27.00,1122.00 27.44,1122.00L28.56,1122.00Q29.00,1122.00 28.78,1121.56L28.22,1120.44Q28.00,1120.00 27.78,1120.22ZM129.56,1127.00L129.56,1127.00Q130.00,1127.00 130.22,1127.22L130.78,1127.78Q131.00,1128.00 130.35,1128.00L128.65,1128.00Q128.00,1128.00 128.00,1127.78L128.00,1127.22Q128.00,1127.00 128.44,1127.00ZM37.44,1089.00L37.44,1089.00Q37.00,1089.00 36.56,1089.00L35.44,1089.00Q35.00,1089.00 35.00,1088.78L35.00,1088.22Q35.00,1088.00 35.65,1088.00L38.35,1088.00Q39.00,1088.00 39.00,1088.22L39.00,1088.78Q39.00,1089.00 38.56,1089.00Z"/><path fill="#edf9fa" fill-rule="evenodd" d="M46.22,1125.78L46.22,1125.78Q46.00,1126.00 45.56,1126.00L44.44,1126.00Q44.00,1126.00 43.54,1125.54L41.46,1123.46Q41.00,1123.00 41.00,1122.56L41.00,1121.44Q41.00,1121.00 40.48,1120.61L37.52,1118.39Q37.00,1118.00 36.79,1117.38L35.21,1112.62Q35.00,1112.00 35.44,1112.22L36.56,1112.78Q37.00,1113.00 37.24,1113.60L38.76,1117.40Q39.00,1118.00 39.49,1118.43L46.51,1124.57Q47.00,1125.00 46.78,1125.22ZM30.00,1095.65L30.00,1095.65Q30.00,1095.00 30.00,1094.35L30.00,1091.65Q30.00,1091.00 30.22,1091.00L30.78,1091.00Q31.00,1091.00 31.02,1091.65L31.98,1119.35Q32.00,1120.00 31.78,1120.00L31.22,1120.00Q31.00,1120.00 31.00,1119.35L31.00,1114.65Q31.00,1114.00 30.78,1114.00L30.22,1114.00Q30.00,1114.00 30.00,1113.35ZM32.22,1124.22L32.22,1124.22Q32.00,1124.00 32.00,1123.35L32.00,1121.65Q32.00,1121.00 32.22,1121.00L32.78,1121.00Q33.00,1121.00 33.00,1121.65L33.00,1124.35Q33.00,1125.00 32.78,1124.78Z"/></svg>