<svg xmlns="http://www.w3.org/2000/svg" width="2944" height="864" viewBox="0 1890 184 54"><path fill="#292e32" fill-rule="evenodd" d="M53.35,1897.00L53.35,1897.00Q54.00,1897.00 54.65,1897.00L68.35,1897.00Q69.00,1897.00 69.00,1897.22L69.00,1897.78Q69.00,1898.00 68.35,1898.00L52.65,1898.00Q52.00,1898.00 52.00,1898.22L52.00,1898.78Q52.00,1899.00 51.56,1899.00L50.44,1899.00Q50.00,1899.00 50.22,1898.56L50.78,1897.44Q51.00,1897.00 51.65,1897.00ZM37.00,1932.56L37.00,1932.56Q37.00,1933.00 36.78,1933.22L36.22,1933.78Q36.00,1934.00 36.00,1933.35L36.00,1931.65Q36.00,1931.00 36.22,1931.00L36.78,1931.00Q37.00,1931.00 37.00,1931.44ZM61.22,1920.44L61.22,1920.44Q61.00,1920.00 60.78,1920.00L60.22,1920.00Q60.00,1920.00 60.00,1920.44L60.00,1921.56Q60.00,1922.00 60.44,1922.00L61.56,1922.00Q62.00,1922.00 61.78,1921.56ZM1.00,1906.65L1.00,1906.65Q1.00,1906.00 1.44,1906.00L2.56,1906.00Q3.00,1906.00 3.00,1905.56L3.00,1904.44Q3.00,1904.00 3.44,1904.00L4.56,1904.00Q5.00,1904.00 5.00,1903.56L5.00,1902.44Q5.00,1902.00 5.65,1902.00L8.35,1902.00Q9.00,1902.00 9.00,1901.56L9.00,1900.44Q9.00,1900.00 9.22,1900.00L9.78,1900.00Q10.00,1900.00 10.07,1900.65L11.93,1918.35Q12.00,1919.00 12.36,1919.54L13.64,1921.46Q14.00,1922.00 14.00,1922.65L14.00,1926.35Q14.00,1927.00 14.46,1927.46L16.54,1929.54Q17.00,1930.00 16.94,1929.35L14.06,1900.65Q14.00,1900.00 14.22,1900.00L14.78,1900.00Q15.00,1900.00 15.16,1899.37L15.84,1896.63Q16.00,1896.00 16.65,1896.00L18.35,1896.00Q19.00,1896.00 19.00,1896.44L19.00,1897.56Q19.00,1898.00 19.65,1898.00L24.35,1898.00Q25.00,1898.00 25.11,1898.64L28.89,1921.36Q29.00,1922.00 29.22,1922.00L29.78,1922.00Q30.00,1922.00 30.00,1922.65L30.00,1925.35Q30.00,1926.00 30.22,1926.00L30.78,1926.00Q31.00,1926.00 31.05,1926.65L31.95,1937.35Q32.00,1938.00 31.35,1938.00L27.65,1938.00Q27.00,1938.00 27.00,1937.56L27.00,1936.44Q27.00,1936.00 26.35,1936.00L19.65,1936.00Q19.00,1936.00 19.00,1936.44L19.00,1937.56Q19.00,1938.00 18.35,1938.00L15.65,1938.00Q15.00,1938.00 15.00,1937.35L15.00,1934.65Q15.00,1934.00 14.56,1934.00L13.44,1934.00Q13.00,1934.00 13.00,1933.56L13.00,1932.44Q13.00,1932.00 12.35,1932.00L9.65,1932.00Q9.00,1932.00 9.00,1931.35L9.00,1926.65Q9.00,1926.00 8.35,1926.00L3.65,1926.00Q3.00,1926.00 3.00,1925.35L3.00,1916.65Q3.00,1916.00 2.56,1916.00L1.44,1916.00Q1.00,1916.00 1.00,1915.35ZM73.65,1934.00L73.65,1934.00Q73.00,1934.00 73.00,1934.44L73.00,1935.56Q73.00,1936.00 72.35,1936.00L65.65,1936.00Q65.00,1936.00 64.78,1936.44L64.22,1937.56Q64.00,1938.00 63.35,1938.00L61.65,1938.00Q61.00,1938.00 60.56,1937.56L59.44,1936.44Q59.00,1936.00 59.00,1935.35L59.00,1933.65Q59.00,1933.00 58.56,1932.56L57.44,1931.44Q57.00,1931.00 57.00,1930.35L57.00,1927.65Q57.00,1927.00 56.46,1926.64L54.54,1925.36Q54.00,1925.00 54.00,1924.56L54.00,1923.44Q54.00,1923.00 53.46,1922.64L51.54,1921.36Q51.00,1921.00 51.00,1920.56L51.00,1919.44Q51.00,1919.00 50.54,1918.54L48.46,1916.46Q48.00,1916.00 47.56,1916.00L46.44,1916.00Q46.00,1916.00 46.00,1915.35L46.00,1912.65Q46.00,1912.00 45.56,1911.78L44.44,1911.22Q44.00,1911.00 44.22,1910.78L44.78,1910.22Q45.00,1910.00 45.00,1909.35L45.00,1903.65Q45.00,1903.00 45.44,1903.00L46.56,1903.00Q47.00,1903.00 47.44,1903.44L48.56,1904.56Q49.00,1905.00 49.00,1905.44L49.00,1906.56Q49.00,1907.00 49.49,1907.43L56.51,1913.57Q57.00,1914.00 57.00,1914.44L57.00,1915.56Q57.00,1916.00 57.44,1916.00L58.56,1916.00Q59.00,1916.00 59.36,1916.54L60.64,1918.46Q61.00,1919.00 61.44,1919.00L62.56,1919.00Q63.00,1919.00 63.52,1919.39L66.48,1921.61Q67.00,1922.00 67.65,1921.95L79.35,1921.05Q80.00,1921.00 80.00,1920.78L80.00,1920.22Q80.00,1920.00 79.35,1920.00L75.65,1920.00Q75.00,1920.00 75.00,1919.78L75.00,1919.22Q75.00,1919.00 75.65,1919.00L79.35,1919.00Q80.00,1919.00 80.22,1919.44L80.78,1920.56Q81.00,1921.00 81.65,1921.00L90.35,1921.00Q91.00,1921.00 91.00,1921.22L91.00,1921.78Q91.00,1922.00 90.56,1922.00L89.44,1922.00Q89.00,1922.00 89.00,1922.44L89.00,1923.56Q89.00,1924.00 88.56,1924.00L87.44,1924.00Q87.00,1924.00 86.56,1924.44L85.44,1925.56Q85.00,1926.00 84.35,1926.05L71.65,1926.95Q71.00,1927.00 70.78,1927.22L70.22,1927.78Q70.00,1928.00 70.22,1928.44L70.78,1929.56Q71.00,1930.00 71.65,1930.00L75.35,1930.00Q76.00,1930.00 76.00,1930.22L76.00,1930.78Q76.00,1931.00 76.64,1931.13L80.36,1931.87Q81.00,1932.00 81.00,1932.44L81.00,1933.56Q81.00,1934.00 80.35,1934.00ZM89.22,1907.22L89.22,1907.22Q89.00,1907.00 88.78,1906.56L88.22,1905.44Q88.00,1905.00 88.44,1905.22L89.56,1905.78Q90.00,1906.00 90.00,1906.44L90.00,1907.56Q90.00,1908.00 89.78,1907.78ZM94.35,1913.05L94.35,1913.05Q95.00,1913.00 94.56,1913.44L93.44,1914.56Q93.00,1915.00 92.35,1915.00L83.65,1915.00Q83.00,1915.00 83.00,1914.78L83.00,1914.22Q83.00,1914.00 83.65,1913.95ZM82.35,1902.00L82.35,1902.00Q83.00,1902.00 83.65,1902.00L85.35,1902.00Q86.00,1902.00 86.00,1902.22L86.00,1902.78Q86.00,1903.00 85.35,1903.00L76.65,1903.00Q76.00,1903.00 76.00,1902.78L76.00,1902.22Q76.00,1902.00 76.65,1902.00ZM92.56,1933.00L92.56,1933.00Q93.00,1933.00 93.65,1933.00L96.35,1933.00Q97.00,1933.00 97.00,1932.56L97.00,1931.44Q97.00,1931.00 97.22,1931.00L97.78,1931.00Q98.00,1931.00 98.00,1931.65L98.00,1933.35Q98.00,1934.00 97.35,1934.00L91.65,1934.00Q91.00,1934.00 91.00,1933.78L91.00,1933.22Q91.00,1933.00 91.44,1933.00ZM106.35,1922.00L106.35,1922.00Q107.00,1922.00 107.65,1922.00L113.35,1922.00Q114.00,1922.00 114.00,1921.78L114.00,1921.22Q114.00,1921.00 114.44,1921.22L115.56,1921.78Q116.00,1922.00 116.44,1921.56L117.56,1920.44Q118.00,1920.00 118.00,1920.44L118.00,1921.56Q118.00,1922.00 117.56,1922.00L116.44,1922.00Q116.00,1922.00 115.56,1922.44L114.44,1923.56Q114.00,1924.00 113.35,1924.00L103.65,1924.00Q103.00,1924.00 103.16,1923.37L103.84,1920.63Q104.00,1920.00 104.22,1920.00L104.78,1920.00Q105.00,1920.00 104.78,1920.44L104.22,1921.56Q104.00,1922.00 104.65,1922.00ZM55.56,1909.78L55.56,1909.78Q56.00,1910.00 56.41,1910.51L59.59,1914.49Q60.00,1915.00 59.50,1914.58L54.50,1910.42Q54.00,1910.00 54.00,1909.78L54.00,1909.22Q54.00,1909.00 54.44,1909.22ZM97.78,1906.00L97.78,1906.00Q98.00,1906.00 98.22,1906.44L98.78,1907.56Q99.00,1908.00 98.56,1908.00L97.44,1908.00Q97.00,1908.00 97.00,1907.56L97.00,1906.44Q97.00,1906.00 97.22,1906.00ZM168.92,1906.65L168.92,1906.65Q169.00,1906.00 169.00,1905.35L169.00,1898.65Q169.00,1898.00 169.44,1898.00L170.56,1898.00Q171.00,1898.00 171.00,1898.65L171.00,1910.35Q171.00,1911.00 170.78,1911.00L170.22,1911.00Q170.00,1911.00 169.94,1911.65L169.06,1921.35Q169.00,1922.00 168.56,1922.22L167.44,1922.78Q167.00,1923.00 167.08,1922.35ZM66.00,1906.78L66.00,1906.78Q66.00,1907.00 65.35,1907.00L63.65,1907.00Q63.00,1907.00 63.00,1906.78L63.00,1906.22Q63.00,1906.00 63.65,1906.00L65.35,1906.00Q66.00,1906.00 66.00,1906.22ZM139.78,1930.78L139.78,1930.78Q140.00,1931.00 140.00,1931.22L140.00,1931.78Q140.00,1932.00 139.56,1932.00L138.44,1932.00Q138.00,1932.00 138.22,1931.56L138.78,1930.44Q139.00,1930.00 139.22,1930.22ZM51.00,1903.22L51.00,1903.22Q51.00,1903.00 51.00,1902.78L51.00,1902.22Q51.00,1902.00 51.65,1902.00L54.35,1902.00Q55.00,1902.00 55.22,1902.44L55.78,1903.56Q56.00,1904.00 55.35,1904.00L51.65,1904.00Q51.00,1904.00 51.00,1903.78ZM77.35,1925.05L77.35,1925.05Q78.00,1925.00 78.63,1924.84L81.37,1924.16Q82.00,1924.00 82.00,1923.56L82.00,1922.44Q82.00,1922.00 81.35,1922.00L78.65,1922.00Q78.00,1922.00 77.46,1922.36L75.54,1923.64Q75.00,1924.00 74.35,1924.00L67.65,1924.00Q67.00,1924.00 66.56,1923.56L65.44,1922.44Q65.00,1922.00 64.35,1922.00L62.65,1922.00Q62.00,1922.00 62.46,1922.46L65.54,1925.54Q66.00,1926.00 66.65,1925.95ZM73.63,1908.16L73.63,1908.16Q73.00,1908.00 72.48,1907.61L69.52,1905.39Q69.00,1905.00 69.64,1905.08L76.36,1905.92Q77.00,1906.00 77.00,1906.22L77.00,1906.78Q77.00,1907.00 77.65,1907.00L80.35,1907.00Q81.00,1907.00 81.21,1907.62L81.79,1909.38Q82.00,1910.00 81.37,1910.16L78.63,1910.84Q78.00,1911.00 77.78,1910.56L77.22,1909.44Q77.00,1909.00 76.37,1908.84ZM88.36,1932.91L88.36,1932.91Q89.00,1933.00 89.22,1933.22L89.78,1933.78Q90.00,1934.00 89.35,1934.00L83.65,1934.00Q83.00,1934.00 82.78,1933.56L82.22,1932.44Q82.00,1932.00 82.64,1932.09ZM139.22,1936.00L139.22,1936.00Q139.00,1936.00 139.00,1935.35L139.00,1933.65Q139.00,1933.00 139.22,1933.00L139.78,1933.00Q140.00,1933.00 140.00,1933.65L140.00,1935.35Q140.00,1936.00 139.78,1936.00ZM82.35,1899.00L82.35,1899.00Q83.00,1899.00 83.00,1899.22L83.00,1899.78Q83.00,1900.00 82.35,1900.00L79.65,1900.00Q79.00,1900.00 79.00,1899.78L79.00,1899.22Q79.00,1899.00 79.65,1899.00ZM42.00,1933.65L42.00,1933.65Q42.00,1933.00 42.22,1933.00L42.78,1933.00Q43.00,1933.00 43.00,1933.65L43.00,1935.35Q43.00,1936.00 42.78,1936.00L42.22,1936.00Q42.00,1936.00 42.00,1935.35ZM114.78,1900.22L114.78,1900.22Q115.00,1900.00 115.44,1900.00L116.56,1900.00Q117.00,1900.00 117.00,1900.22L117.00,1900.78Q117.00,1901.00 116.35,1901.00L114.65,1901.00Q114.00,1901.00 114.22,1900.78ZM30.22,1901.22L30.22,1901.22Q30.00,1901.00 29.79,1900.38L29.21,1898.62Q29.00,1898.00 29.65,1898.00L31.35,1898.00Q32.00,1898.00 31.78,1898.22L31.22,1898.78Q31.00,1899.00 31.22,1899.44L31.78,1900.56Q32.00,1901.00 31.78,1901.22L31.22,1901.78Q31.00,1902.00 30.78,1901.78ZM98.56,1925.00L98.56,1925.00Q99.00,1925.00 99.00,1925.22L99.00,1925.78Q99.00,1926.00 98.56,1926.00L97.44,1926.00Q97.00,1926.00 96.79,1926.62L96.21,1928.38Q96.00,1929.00 95.56,1929.00L94.44,1929.00Q94.00,1929.00 94.00,1928.78L94.00,1928.22Q94.00,1928.00 94.44,1928.00L95.56,1928.00Q96.00,1928.00 96.21,1927.38L96.79,1925.62Q97.00,1925.00 97.44,1925.00ZM141.00,1914.44L141.00,1914.44Q141.00,1914.00 141.00,1913.35L141.00,1906.65Q141.00,1906.00 141.22,1906.00L141.78,1906.00Q142.00,1906.00 142.00,1906.65L142.00,1915.35Q142.00,1916.00 141.78,1916.00L141.22,1916.00Q141.00,1916.00 141.00,1915.56ZM103.22,1911.78L103.22,1911.78Q103.00,1912.00 102.56,1911.56L101.44,1910.44Q101.00,1910.00 101.44,1910.00L102.56,1910.00Q103.00,1910.00 103.22,1910.22L103.78,1910.78Q104.00,1911.00 103.78,1911.22ZM127.78,1906.78L127.78,1906.78Q128.00,1907.00 128.00,1907.44L128.00,1908.56Q128.00,1909.00 127.78,1909.00L127.22,1909.00Q127.00,1909.00 127.00,1908.35L127.00,1906.65Q127.00,1906.00 127.22,1906.22ZM44.00,1920.65L44.00,1920.65Q44.00,1920.00 44.22,1920.00L44.78,1920.00Q45.00,1920.00 45.00,1920.65L45.00,1922.35Q45.00,1923.00 44.78,1923.00L44.22,1923.00Q44.00,1923.00 44.00,1922.35ZM44.22,1932.78L44.22,1932.78Q44.00,1933.00 44.00,1932.78L44.00,1932.22Q44.00,1932.00 43.56,1932.00L42.44,1932.00Q42.00,1932.00 42.00,1931.56L42.00,1930.44Q42.00,1930.00 42.54,1930.36L44.46,1931.64Q45.00,1932.00 44.78,1932.22ZM55.00,1905.22L55.00,1905.22Q55.00,1905.00 55.65,1905.00L59.35,1905.00Q60.00,1905.00 60.00,1905.22L60.00,1905.78Q60.00,1906.00 59.35,1906.00L55.65,1906.00Q55.00,1906.00 55.00,1905.78ZM107.78,1898.22L107.78,1898.22Q108.00,1898.00 108.22,1898.00L108.78,1898.00Q109.00,1898.00 109.00,1898.65L109.00,1900.35Q109.00,1901.00 108.56,1900.56L107.44,1899.44Q107.00,1899.00 107.22,1898.78ZM46.78,1925.78L46.78,1925.78Q47.00,1926.00 47.22,1926.44L47.78,1927.56Q48.00,1928.00 47.56,1927.78L46.44,1927.22Q46.00,1927.00 46.00,1926.56L46.00,1925.44Q46.00,1925.00 46.22,1925.22ZM134.00,1937.56L134.00,1937.56Q134.00,1938.00 133.56,1938.00L132.44,1938.00Q132.00,1938.00 132.00,1937.78L132.00,1937.22Q132.00,1937.00 132.44,1936.78L133.56,1936.22Q134.00,1936.00 134.00,1936.44ZM118.36,1918.46L118.36,1918.46Q118.00,1919.00 117.78,1918.78L117.22,1918.22Q117.00,1918.00 117.54,1917.64L119.46,1916.36Q120.00,1916.00 119.64,1916.54ZM98.38,1913.79L98.38,1913.79Q99.00,1914.00 99.00,1914.22L99.00,1914.78Q99.00,1915.00 98.56,1915.00L97.44,1915.00Q97.00,1915.00 96.78,1914.56L96.22,1913.44Q96.00,1913.00 96.62,1913.21ZM100.65,1900.00L100.65,1900.00Q100.00,1900.00 99.78,1899.78L99.22,1899.22Q99.00,1899.00 99.64,1898.89L104.36,1898.11Q105.00,1898.00 104.56,1898.44L103.44,1899.56Q103.00,1900.00 102.35,1900.00ZM172.78,1933.78L172.78,1933.78Q173.00,1934.00 173.00,1934.44L173.00,1935.56Q173.00,1936.00 172.56,1936.00L171.44,1936.00Q171.00,1936.00 171.21,1935.38L171.79,1933.62Q172.00,1933.00 172.22,1933.22ZM125.36,1937.46L125.36,1937.46Q125.00,1938.00 124.78,1937.78L124.22,1937.22Q124.00,1937.00 124.54,1936.64L126.46,1935.36Q127.00,1935.00 126.64,1935.54ZM62.22,1900.78L62.22,1900.78Q62.00,1901.00 61.35,1901.00L58.65,1901.00Q58.00,1901.00 58.00,1900.78L58.00,1900.22Q58.00,1900.00 58.65,1900.00L62.35,1900.00Q63.00,1900.00 62.78,1900.22ZM124.56,1905.00L124.56,1905.00Q125.00,1905.00 125.22,1905.22L125.78,1905.78Q126.00,1906.00 125.35,1906.00L123.65,1906.00Q123.00,1906.00 123.00,1905.78L123.00,1905.22Q123.00,1905.00 123.44,1905.00ZM120.56,1900.00L120.56,1900.00Q121.00,1900.00 121.65,1900.00L123.35,1900.00Q124.00,1900.00 124.00,1900.22L124.00,1900.78Q124.00,1901.00 123.35,1901.00L119.65,1901.00Q119.00,1901.00 119.00,1900.78L119.00,1900.22Q119.00,1900.00 119.44,1900.00ZM78.44,1932.00L78.44,1932.00Q78.00,1932.00 77.78,1932.22L77.22,1932.78Q77.00,1933.00 77.65,1933.00L79.35,1933.00Q80.00,1933.00 80.00,1932.78L80.00,1932.22Q80.00,1932.00 79.56,1932.00ZM92.56,1902.00L92.56,1902.00Q93.00,1902.00 93.22,1902.22L93.78,1902.78Q94.00,1903.00 93.35,1903.00L91.65,1903.00Q91.00,1903.00 91.00,1902.78L91.00,1902.22Q91.00,1902.00 91.44,1902.00Z"/><path fill="#07090b" fill-rule="evenodd" d="M54.21,1907.38L54.21,1907.38Q54.00,1908.00 54.00,1908.44L54.00,1909.56Q54.00,1910.00 54.50,1910.42L65.50,1919.58Q66.00,1920.00 66.65,1919.97L90.35,1919.03Q91.00,1919.00 91.00,1919.44L91.00,1920.56Q91.00,1921.00 90.35,1921.00L81.65,1921.00Q81.00,1921.00 80.78,1920.78L80.22,1920.22Q80.00,1920.00 80.00,1920.22L80.00,1920.78Q80.00,1921.00 79.35,1921.00L76.65,1921.00Q76.00,1921.00 76.00,1921.22L76.00,1921.78Q76.00,1922.00 75.35,1922.00L67.65,1922.00Q67.00,1922.00 67.00,1921.78L67.00,1921.22Q67.00,1921.00 66.38,1920.79L61.62,1919.21Q61.00,1919.00 60.64,1918.46L59.36,1916.54Q59.00,1916.00 58.56,1916.00L57.44,1916.00Q57.00,1916.00 57.00,1915.56L57.00,1914.44Q57.00,1914.00 56.51,1913.57L49.49,1907.43Q49.00,1907.00 49.00,1906.56L49.00,1905.44Q49.00,1905.00 48.56,1904.56L47.44,1903.44Q47.00,1903.00 46.56,1903.00L45.44,1903.00Q45.00,1903.00 45.00,1903.65L45.00,1909.35Q45.00,1910.00 44.46,1910.36L42.54,1911.64Q42.00,1912.00 42.00,1912.65L42.00,1916.35Q42.00,1917.00 41.78,1917.00L41.22,1917.00Q41.00,1917.00 40.96,1916.35L40.04,1902.65Q40.00,1902.00 39.38,1901.79L37.62,1901.21Q37.00,1901.00 37.00,1900.78L37.00,1900.22Q37.00,1900.00 37.65,1900.00L48.35,1900.00Q49.00,1900.00 49.00,1900.44L49.00,1901.56Q49.00,1902.00 49.22,1902.00L49.78,1902.00Q50.00,1902.00 50.22,1901.56L50.78,1900.44Q51.00,1900.00 51.44,1900.00L52.56,1900.00Q53.00,1900.00 53.00,1900.44L53.00,1901.56Q53.00,1902.00 52.56,1902.00L51.44,1902.00Q51.00,1902.00 51.00,1902.44L51.00,1903.56Q51.00,1904.00 51.65,1904.00L55.35,1904.00Q56.00,1904.00 55.78,1903.56L55.22,1902.44Q55.00,1902.00 55.65,1902.00L62.35,1902.00Q63.00,1902.00 63.00,1902.22L63.00,1902.78Q63.00,1903.00 63.65,1903.00L66.35,1903.00Q67.00,1903.00 67.00,1903.22L67.00,1903.78Q67.00,1904.00 67.65,1904.00L73.35,1904.00Q74.00,1904.00 73.78,1903.56L73.22,1902.44Q73.00,1902.00 73.22,1902.22L73.78,1902.78Q74.00,1903.00 74.65,1903.00L86.35,1903.00Q87.00,1903.00 87.00,1903.44L87.00,1904.56Q87.00,1905.00 87.44,1905.22L88.56,1905.78Q89.00,1906.00 89.00,1906.65L89.00,1908.35Q89.00,1909.00 88.64,1909.54L87.36,1911.46Q87.00,1912.00 87.44,1912.44L88.56,1913.56Q89.00,1914.00 88.35,1913.94L79.65,1913.06Q79.00,1913.00 78.78,1912.56L78.22,1911.44Q78.00,1911.00 78.63,1910.84L81.37,1910.16Q82.00,1910.00 82.00,1909.56L82.00,1908.44Q82.00,1908.00 81.36,1907.87L77.64,1907.13Q77.00,1907.00 77.00,1906.78L77.00,1906.22Q77.00,1906.00 76.35,1906.00L72.65,1906.00Q72.00,1906.00 72.00,1905.78L72.00,1905.22Q72.00,1905.00 71.35,1905.00L69.65,1905.00Q69.00,1905.00 69.00,1905.22L69.00,1905.78Q69.00,1906.00 69.61,1906.23L76.39,1908.77Q77.00,1909.00 77.22,1909.44L77.78,1910.56Q78.00,1911.00 77.56,1911.00L76.44,1911.00Q76.00,1911.00 75.48,1910.61L72.52,1908.39Q72.00,1908.00 71.35,1908.00L69.65,1908.00Q69.00,1908.00 68.46,1907.64L66.54,1906.36Q66.00,1906.00 65.35,1906.00L60.65,1906.00Q60.00,1906.00 60.00,1905.78L60.00,1905.22Q60.00,1905.00 59.35,1905.00L55.65,1905.00Q55.00,1905.00 54.79,1905.62ZM120.65,1936.00L120.65,1936.00Q120.00,1936.00 119.56,1936.00L118.44,1936.00Q118.00,1936.00 118.00,1935.56L118.00,1934.44Q118.00,1934.00 117.37,1934.16L114.63,1934.84Q114.00,1935.00 114.22,1934.78L114.78,1934.22Q115.00,1934.00 114.84,1933.37L114.16,1930.63Q114.00,1930.00 113.35,1930.00L99.65,1930.00Q99.00,1930.00 98.78,1930.22L98.22,1930.78Q98.00,1931.00 97.46,1930.64L95.54,1929.36Q95.00,1929.00 95.46,1928.54L100.54,1923.46Q101.00,1923.00 101.65,1923.05L113.35,1923.95Q114.00,1924.00 114.00,1923.78L114.00,1923.22Q114.00,1923.00 114.63,1922.84L117.37,1922.16Q118.00,1922.00 118.00,1921.56L118.00,1920.44Q118.00,1920.00 117.56,1920.44L116.44,1921.56Q116.00,1922.00 115.78,1921.78L115.22,1921.22Q115.00,1921.00 114.78,1921.22L114.22,1921.78Q114.00,1922.00 113.35,1922.00L104.65,1922.00Q104.00,1922.00 104.00,1921.78L104.00,1921.22Q104.00,1921.00 104.64,1920.91L117.36,1919.09Q118.00,1919.00 118.46,1918.54L127.54,1909.46Q128.00,1909.00 128.00,1908.35L128.00,1906.65Q128.00,1906.00 127.56,1906.00L126.44,1906.00Q126.00,1906.00 126.00,1905.78L126.00,1905.22Q126.00,1905.00 125.35,1905.07L117.65,1905.93Q117.00,1906.00 117.00,1906.22L117.00,1906.78Q117.00,1907.00 116.36,1907.09L110.64,1907.91Q110.00,1908.00 109.48,1908.39L106.52,1910.61Q106.00,1911.00 105.35,1911.00L103.65,1911.00Q103.00,1911.00 103.00,1910.78L103.00,1910.22Q103.00,1910.00 102.35,1910.00L99.65,1910.00Q99.00,1910.00 98.84,1909.37L98.16,1906.63Q98.00,1906.00 97.36,1905.87L93.64,1905.13Q93.00,1905.00 92.56,1904.56L91.44,1903.44Q91.00,1903.00 91.65,1903.00L107.35,1903.00Q108.00,1903.00 108.00,1902.56L108.00,1901.44Q108.00,1901.00 108.44,1901.00L109.56,1901.00Q110.00,1901.00 110.00,1901.22L110.00,1901.78Q110.00,1902.00 110.65,1902.00L114.35,1902.00Q115.00,1902.00 115.00,1901.78L115.00,1901.22Q115.00,1901.00 115.65,1901.05L127.35,1901.95Q128.00,1902.00 128.00,1901.78L128.00,1901.22Q128.00,1901.00 127.35,1901.00L124.65,1901.00Q124.00,1901.00 124.00,1900.78L124.00,1900.22Q124.00,1900.00 124.65,1900.00L168.35,1900.00Q169.00,1900.00 169.00,1900.65L169.00,1910.35Q169.00,1911.00 168.78,1911.00L168.22,1911.00Q168.00,1911.00 168.00,1911.65L168.00,1917.35Q168.00,1918.00 167.78,1918.00L167.22,1918.00Q167.00,1918.00 167.00,1918.65L167.00,1922.35Q167.00,1923.00 167.22,1923.00L167.78,1923.00Q168.00,1923.00 168.11,1922.36L168.89,1917.64Q169.00,1917.00 169.22,1917.00L169.78,1917.00Q170.00,1917.00 170.00,1916.35L170.00,1911.65Q170.00,1911.00 170.22,1911.00L170.78,1911.00Q171.00,1911.00 171.00,1910.35L171.00,1898.65Q171.00,1898.00 171.22,1898.00L171.78,1898.00Q172.00,1898.00 172.00,1898.44L172.00,1899.56Q172.00,1900.00 172.65,1900.00L174.35,1900.00Q175.00,1900.00 174.78,1899.56L174.22,1898.44Q174.00,1898.00 174.62,1898.21L176.38,1898.79Q177.00,1899.00 177.00,1899.65L177.00,1903.35Q177.00,1904.00 177.44,1904.00L178.56,1904.00Q179.00,1904.00 179.00,1904.65L179.00,1921.35Q179.00,1922.00 178.56,1921.56L177.44,1920.44Q177.00,1920.00 177.00,1920.65L177.00,1923.35Q177.00,1924.00 176.56,1924.00L175.44,1924.00Q175.00,1924.00 175.00,1924.65L175.00,1927.35Q175.00,1928.00 174.56,1928.00L173.44,1928.00Q173.00,1928.00 173.00,1928.65L173.00,1932.35Q173.00,1933.00 172.56,1932.78L171.44,1932.22Q171.00,1932.00 171.22,1932.22L171.78,1932.78Q172.00,1933.00 171.79,1933.62L171.21,1935.38Q171.00,1936.00 170.56,1936.00L169.44,1936.00Q169.00,1936.00 169.22,1935.56L169.78,1934.44Q170.00,1934.00 169.35,1934.00L165.65,1934.00Q165.00,1934.00 165.00,1934.44L165.00,1935.56Q165.00,1936.00 164.35,1936.00L146.65,1936.00Q146.00,1936.00 145.78,1935.78L145.22,1935.22Q145.00,1935.00 145.07,1934.35L145.93,1926.65Q146.00,1926.00 146.22,1926.00L146.78,1926.00Q147.00,1926.00 147.00,1925.35L147.00,1901.65Q147.00,1901.00 146.56,1901.00L145.44,1901.00Q145.00,1901.00 144.59,1901.51L141.41,1905.49Q141.00,1906.00 141.00,1906.65L141.00,1917.35Q141.00,1918.00 140.78,1918.00L140.22,1918.00Q140.00,1918.00 139.79,1918.62L138.21,1923.38Q138.00,1924.00 137.46,1924.36L135.54,1925.64Q135.00,1926.00 135.00,1926.44L135.00,1927.56Q135.00,1928.00 134.54,1928.46L130.46,1932.54Q130.00,1933.00 129.56,1933.00L128.44,1933.00Q128.00,1933.00 127.64,1933.54L126.36,1935.46Q126.00,1936.00 125.35,1936.00ZM44.22,1920.00L44.22,1920.00Q44.00,1920.00 44.16,1919.37L44.84,1916.63Q45.00,1916.00 45.65,1916.00L47.35,1916.00Q48.00,1916.00 48.46,1916.46L50.54,1918.54Q51.00,1919.00 51.00,1919.44L51.00,1920.56Q51.00,1921.00 51.46,1921.46L56.54,1926.54Q57.00,1927.00 57.00,1927.65L57.00,1930.35Q57.00,1931.00 57.44,1931.44L58.56,1932.56Q59.00,1933.00 59.00,1933.65L59.00,1935.35Q59.00,1936.00 58.35,1936.00L56.65,1936.00Q56.00,1936.00 56.22,1935.56L56.78,1934.44Q57.00,1934.00 56.56,1934.22L55.44,1934.78Q55.00,1935.00 54.64,1934.46L53.36,1932.54Q53.00,1932.00 52.38,1931.79L50.62,1931.21Q50.00,1931.00 50.00,1930.56L50.00,1929.44Q50.00,1929.00 49.54,1928.54L45.46,1924.46Q45.00,1924.00 45.00,1923.35L45.00,1920.65Q45.00,1920.00 44.78,1920.00ZM26.10,1903.64L26.10,1903.64Q26.00,1903.00 25.87,1902.36L25.13,1898.64Q25.00,1898.00 25.44,1898.00L26.56,1898.00Q27.00,1898.00 27.00,1898.44L27.00,1899.56Q27.00,1900.00 27.65,1900.00L29.35,1900.00Q30.00,1900.00 30.00,1900.44L30.00,1901.56Q30.00,1902.00 30.62,1901.79L35.38,1900.21Q36.00,1900.00 35.78,1900.22L35.22,1900.78Q35.00,1901.00 35.00,1901.65L35.00,1926.35Q35.00,1927.00 35.22,1927.00L35.78,1927.00Q36.00,1927.00 36.00,1927.65L36.00,1933.35Q36.00,1934.00 36.22,1934.00L36.78,1934.00Q37.00,1934.00 36.78,1934.44L36.22,1935.56Q36.00,1936.00 35.56,1936.00L34.44,1936.00Q34.00,1936.00 34.00,1935.56L34.00,1934.44Q34.00,1934.00 33.56,1934.00L32.44,1934.00Q32.00,1934.00 32.00,1933.56L32.00,1932.44Q32.00,1932.00 31.78,1932.00L31.22,1932.00Q31.00,1932.00 31.00,1931.35L31.00,1926.65Q31.00,1926.00 30.78,1926.00L30.22,1926.00Q30.00,1926.00 30.00,1925.35L30.00,1922.65Q30.00,1922.00 29.78,1922.00L29.22,1922.00Q29.00,1922.00 28.90,1921.36ZM140.00,1932.78L140.00,1932.78Q140.00,1933.00 139.78,1933.00L139.22,1933.00Q139.00,1933.00 139.00,1933.65L139.00,1935.35Q139.00,1936.00 138.78,1936.00L138.22,1936.00Q138.00,1936.00 138.00,1935.56L138.00,1934.44Q138.00,1934.00 137.78,1934.00L137.22,1934.00Q137.00,1934.00 137.00,1934.44L137.00,1935.56Q137.00,1936.00 136.56,1936.00L135.44,1936.00Q135.00,1936.00 135.39,1935.48L137.61,1932.52Q138.00,1932.00 138.44,1932.00L139.56,1932.00Q140.00,1932.00 140.00,1932.22ZM66.00,1925.22L66.00,1925.22Q66.00,1925.00 65.56,1925.00L64.44,1925.00Q64.00,1925.00 63.64,1924.46L62.36,1922.54Q62.00,1922.00 61.56,1922.00L60.44,1922.00Q60.00,1922.00 60.00,1921.56L60.00,1920.44Q60.00,1920.00 60.44,1920.44L61.56,1921.56Q62.00,1922.00 62.64,1922.13L66.36,1922.87Q67.00,1923.00 67.00,1923.22L67.00,1923.78Q67.00,1924.00 67.65,1924.00L74.35,1924.00Q75.00,1924.00 75.54,1923.64L77.46,1922.36Q78.00,1922.00 78.65,1922.00L81.35,1922.00Q82.00,1922.00 82.00,1922.44L82.00,1923.56Q82.00,1924.00 81.36,1924.11L76.64,1924.89Q76.00,1925.00 76.00,1925.22L76.00,1925.78Q76.00,1926.00 75.35,1926.00L66.65,1926.00Q66.00,1926.00 66.00,1925.78ZM14.11,1903.36L14.11,1903.36Q14.00,1904.00 14.07,1904.65L16.93,1929.35Q17.00,1930.00 16.54,1929.54L14.46,1927.46Q14.00,1927.00 14.00,1926.35L14.00,1922.65Q14.00,1922.00 13.64,1921.46L12.36,1919.54Q12.00,1919.00 12.00,1918.35L12.00,1913.65Q12.00,1913.00 11.78,1913.00L11.22,1913.00Q11.00,1913.00 11.00,1912.35L11.00,1907.65Q11.00,1907.00 10.78,1907.00L10.22,1907.00Q10.00,1907.00 10.00,1906.35L10.00,1902.65Q10.00,1902.00 10.39,1902.52L12.61,1905.48Q13.00,1906.00 13.08,1905.36L13.92,1898.64Q14.00,1898.00 14.22,1898.00L14.78,1898.00Q15.00,1898.00 14.89,1898.64ZM57.35,1900.00L57.35,1900.00Q58.00,1900.00 58.00,1900.22L58.00,1900.78Q58.00,1901.00 57.35,1901.00L55.65,1901.00Q55.00,1901.00 55.00,1900.78L55.00,1900.22Q55.00,1900.00 55.65,1900.00ZM43.00,1933.22L43.00,1933.22Q43.00,1933.00 42.78,1932.78L42.22,1932.22Q42.00,1932.00 42.44,1932.00L43.56,1932.00Q44.00,1932.00 44.22,1932.44L44.78,1933.56Q45.00,1934.00 44.56,1934.00L43.44,1934.00Q43.00,1934.00 43.00,1933.78ZM39.65,1899.00L39.65,1899.00Q39.00,1899.00 39.00,1898.78L39.00,1898.22Q39.00,1898.00 39.65,1898.00L41.35,1898.00Q42.00,1898.00 42.00,1898.22L42.00,1898.78Q42.00,1899.00 41.35,1899.00ZM143.44,1899.00L143.44,1899.00Q143.00,1899.00 142.56,1899.00L141.44,1899.00Q141.00,1899.00 141.00,1898.78L141.00,1898.22Q141.00,1898.00 141.65,1898.00L144.35,1898.00Q145.00,1898.00 145.00,1898.22L145.00,1898.78Q145.00,1899.00 144.56,1899.00Z"/><path fill="#626c71" fill-rule="evenodd" d="M90.78,1903.78L90.78,1903.78Q91.00,1904.00 91.00,1904.22L91.00,1904.78Q91.00,1905.00 91.65,1905.00L94.35,1905.00Q95.00,1905.00 95.22,1905.44L95.78,1906.56Q96.00,1907.00 95.36,1906.87L91.64,1906.13Q91.00,1906.00 90.76,1906.60L89.24,1910.40Q89.00,1911.00 89.63,1911.16L92.37,1911.84Q93.00,1912.00 93.00,1912.22L93.00,1912.78Q93.00,1913.00 92.35,1913.00L89.65,1913.00Q89.00,1913.00 88.79,1912.38L88.21,1910.62Q88.00,1910.00 88.22,1910.00L88.78,1910.00Q89.00,1910.00 89.16,1909.37L89.84,1906.63Q90.00,1906.00 89.56,1905.78L88.44,1905.22Q88.00,1905.00 88.00,1904.56L88.00,1903.44Q88.00,1903.00 87.56,1903.00L86.44,1903.00Q86.00,1903.00 86.00,1902.78L86.00,1902.22Q86.00,1902.00 85.35,1902.00L76.65,1902.00Q76.00,1902.00 75.78,1902.22L75.22,1902.78Q75.00,1903.00 74.56,1902.56L73.44,1901.44Q73.00,1901.00 73.00,1900.35L73.00,1898.65Q73.00,1898.00 73.65,1898.00L76.35,1898.00Q77.00,1898.00 77.44,1898.44L78.56,1899.56Q79.00,1900.00 79.65,1900.00L102.35,1900.00Q103.00,1900.00 103.00,1899.78L103.00,1899.22Q103.00,1899.00 103.63,1898.84L106.37,1898.16Q107.00,1898.00 107.16,1898.63L107.84,1901.37Q108.00,1902.00 107.56,1902.00L106.44,1902.00Q106.00,1902.00 106.00,1902.22L106.00,1902.78Q106.00,1903.00 105.35,1902.96L91.65,1902.04Q91.00,1902.00 90.78,1902.22L90.22,1902.78Q90.00,1903.00 90.22,1903.22ZM98.22,1909.44L98.22,1909.44Q98.00,1909.00 98.60,1909.24L102.40,1910.76Q103.00,1911.00 103.00,1911.22L103.00,1911.78Q103.00,1912.00 102.37,1911.84L99.63,1911.16Q99.00,1911.00 98.78,1910.56ZM39.56,1903.56L39.56,1903.56Q40.00,1904.00 40.00,1904.65L40.00,1913.35Q40.00,1914.00 39.78,1914.00L39.22,1914.00Q39.00,1914.00 39.00,1913.35L39.00,1903.65Q39.00,1903.00 38.78,1902.78L38.22,1902.22Q38.00,1902.00 38.44,1902.44ZM127.35,1898.00L127.35,1898.00Q128.00,1898.00 128.44,1898.00L129.56,1898.00Q130.00,1898.00 130.00,1898.22L130.00,1898.78Q130.00,1899.00 129.35,1899.00L127.65,1899.00Q127.00,1899.00 127.00,1899.22L127.00,1899.78Q127.00,1900.00 126.35,1900.00L119.65,1900.00Q119.00,1900.00 119.00,1900.22L119.00,1900.78Q119.00,1901.00 118.36,1900.89L113.64,1900.11Q113.00,1900.00 113.00,1899.56L113.00,1898.44Q113.00,1898.00 113.65,1898.00ZM76.56,1911.00L76.56,1911.00Q77.00,1911.00 77.54,1911.36L82.46,1914.64Q83.00,1915.00 82.39,1914.77L75.61,1912.23Q75.00,1912.00 75.00,1911.78L75.00,1911.22Q75.00,1911.00 75.44,1911.00ZM146.00,1910.65L146.00,1910.65Q146.00,1910.00 146.00,1909.35L146.00,1903.65Q146.00,1903.00 145.78,1902.78L145.22,1902.22Q145.00,1902.00 145.44,1902.00L146.56,1902.00Q147.00,1902.00 147.00,1902.65L147.00,1924.35Q147.00,1925.00 146.78,1925.00L146.22,1925.00Q146.00,1925.00 146.00,1924.35ZM38.65,1938.00L38.65,1938.00Q38.00,1938.00 38.00,1937.78L38.00,1937.22Q38.00,1937.00 38.64,1936.87L42.36,1936.13Q43.00,1936.00 42.78,1936.44L42.22,1937.56Q42.00,1938.00 41.35,1938.00ZM104.00,1911.22L104.00,1911.22Q104.00,1911.00 104.65,1911.00L106.35,1911.00Q107.00,1911.00 107.00,1911.22L107.00,1911.78Q107.00,1912.00 106.35,1912.00L104.65,1912.00Q104.00,1912.00 104.00,1911.78ZM118.48,1916.39L118.48,1916.39Q119.00,1916.00 118.64,1916.54L117.36,1918.46Q117.00,1919.00 116.56,1919.00L115.44,1919.00Q115.00,1919.00 115.52,1918.61ZM56.00,1936.78L56.00,1936.78Q56.00,1937.00 56.00,1937.22L56.00,1937.78Q56.00,1938.00 55.35,1938.00L50.65,1938.00Q50.00,1938.00 49.56,1937.56L48.44,1936.44Q48.00,1936.00 48.44,1936.00L49.56,1936.00Q50.00,1936.00 50.00,1936.22L50.00,1936.78Q50.00,1937.00 50.64,1936.89L55.36,1936.11Q56.00,1936.00 56.00,1936.22ZM95.54,1919.64L95.54,1919.64Q95.00,1920.00 95.00,1920.22L95.00,1920.78Q95.00,1921.00 94.37,1921.16L91.63,1921.84Q91.00,1922.00 91.22,1922.44L91.78,1923.56Q92.00,1924.00 91.78,1923.78L91.22,1923.22Q91.00,1923.00 90.56,1923.22L89.44,1923.78Q89.00,1924.00 89.00,1923.56L89.00,1922.44Q89.00,1922.00 89.44,1922.00L90.56,1922.00Q91.00,1922.00 91.36,1921.46L92.64,1919.54Q93.00,1919.00 92.35,1919.00L77.65,1919.00Q77.00,1919.00 77.00,1918.78L77.00,1918.22Q77.00,1918.00 77.65,1918.00L97.35,1918.00Q98.00,1918.00 97.46,1918.36ZM95.37,1931.16L95.37,1931.16Q96.00,1931.00 96.22,1931.00L96.78,1931.00Q97.00,1931.00 97.00,1931.44L97.00,1932.56Q97.00,1933.00 96.35,1933.00L92.65,1933.00Q92.00,1933.00 92.00,1932.78L92.00,1932.22Q92.00,1932.00 92.63,1931.84ZM72.62,1910.21L72.62,1910.21Q72.00,1910.00 71.37,1909.84L68.63,1909.16Q68.00,1909.00 68.00,1908.78L68.00,1908.22Q68.00,1908.00 68.65,1908.00L70.35,1908.00Q71.00,1908.00 71.00,1908.22L71.00,1908.78Q71.00,1909.00 71.63,1909.16L74.37,1909.84Q75.00,1910.00 75.00,1910.22L75.00,1910.78Q75.00,1911.00 74.38,1910.79ZM43.22,1921.22L43.22,1921.22Q43.00,1921.00 43.00,1920.56L43.00,1919.44Q43.00,1919.00 42.38,1919.21L40.62,1919.79Q40.00,1920.00 40.00,1919.35L40.00,1916.65Q40.00,1916.00 40.44,1916.44L41.56,1917.56Q42.00,1918.00 42.00,1917.35L42.00,1914.65Q42.00,1914.00 42.44,1914.44L43.56,1915.56Q44.00,1916.00 44.16,1915.37L44.84,1912.63Q45.00,1912.00 45.22,1912.00L45.78,1912.00Q46.00,1912.00 46.00,1912.65L46.00,1915.35Q46.00,1916.00 45.56,1916.00L44.44,1916.00Q44.00,1916.00 44.00,1916.65L44.00,1921.35Q44.00,1922.00 43.78,1921.78ZM58.35,1898.00L58.35,1898.00Q59.00,1898.00 59.65,1898.00L69.35,1898.00Q70.00,1898.00 70.22,1898.44L70.78,1899.56Q71.00,1900.00 70.78,1900.22L70.22,1900.78Q70.00,1901.00 69.35,1900.96L55.65,1900.04Q55.00,1900.00 54.46,1899.64L52.54,1898.36Q52.00,1898.00 52.65,1898.00ZM45.78,1932.00L45.78,1932.00Q46.00,1932.00 46.44,1932.44L47.56,1933.56Q48.00,1934.00 48.00,1934.44L48.00,1935.56Q48.00,1936.00 47.46,1935.64L45.54,1934.36Q45.00,1934.00 45.00,1933.56L45.00,1932.44Q45.00,1932.00 45.22,1932.00ZM140.84,1923.63L140.84,1923.63Q141.00,1923.00 140.78,1922.78L140.22,1922.22Q140.00,1922.00 140.00,1922.44L140.00,1923.56Q140.00,1924.00 139.56,1924.44L138.44,1925.56Q138.00,1926.00 137.78,1925.78L137.22,1925.22Q137.00,1925.00 137.46,1924.54L139.54,1922.46Q140.00,1922.00 140.00,1921.35L140.00,1919.65Q140.00,1919.00 140.36,1918.46L141.64,1916.54Q142.00,1916.00 142.00,1915.35L142.00,1905.65Q142.00,1905.00 142.54,1904.64L144.46,1903.36Q145.00,1903.00 144.78,1903.22L144.22,1903.78Q144.00,1904.00 144.00,1904.65L144.00,1911.35Q144.00,1912.00 144.22,1912.00L144.78,1912.00Q145.00,1912.00 144.91,1912.64L144.09,1918.36Q144.00,1919.00 144.22,1919.00L144.78,1919.00Q145.00,1919.00 145.00,1919.44L145.00,1920.56Q145.00,1921.00 144.78,1921.00L144.22,1921.00Q144.00,1921.00 144.00,1921.65L144.00,1927.35Q144.00,1928.00 143.78,1928.00L143.22,1928.00Q143.00,1928.00 143.06,1928.65L143.94,1937.35Q144.00,1938.00 143.35,1938.00L140.65,1938.00Q140.00,1938.00 140.00,1937.35L140.00,1930.65Q140.00,1930.00 139.54,1930.46L132.46,1937.54Q132.00,1938.00 131.35,1938.00L126.65,1938.00Q126.00,1938.00 126.21,1937.38L126.79,1935.62Q127.00,1935.00 127.22,1935.00L127.78,1935.00Q128.00,1935.00 127.78,1935.44L127.22,1936.56Q127.00,1937.00 127.64,1936.87L131.36,1936.13Q132.00,1936.00 132.44,1935.56L133.56,1934.44Q134.00,1934.00 134.00,1933.56L134.00,1932.44Q134.00,1932.00 134.44,1932.00L135.56,1932.00Q136.00,1932.00 136.21,1931.38L136.79,1929.62Q137.00,1929.00 137.54,1928.64L139.46,1927.36Q140.00,1927.00 140.16,1926.37ZM68.22,1899.22L68.22,1899.22Q68.00,1899.00 67.35,1899.00L65.65,1899.00Q65.00,1899.00 65.00,1899.22L65.00,1899.78Q65.00,1900.00 65.65,1900.00L68.35,1900.00Q69.00,1900.00 68.78,1899.78ZM107.00,1919.22L107.00,1919.22Q107.00,1919.00 107.65,1919.00L113.35,1919.00Q114.00,1919.00 114.00,1919.22L114.00,1919.78Q114.00,1920.00 113.35,1920.00L107.65,1920.00Q107.00,1920.00 107.00,1919.78ZM75.65,1927.94L75.65,1927.94Q75.00,1928.00 74.56,1928.00L73.44,1928.00Q73.00,1928.00 73.44,1928.44L74.56,1929.56Q75.00,1930.00 74.35,1930.00L71.65,1930.00Q71.00,1930.00 70.78,1929.78L70.22,1929.22Q70.00,1929.00 70.22,1928.56L70.78,1927.44Q71.00,1927.00 71.65,1926.95L84.35,1926.05Q85.00,1926.00 85.00,1926.22L85.00,1926.78Q85.00,1927.00 84.35,1927.06ZM129.62,1933.79L129.62,1933.79Q129.00,1934.00 129.36,1933.46L130.64,1931.54Q131.00,1931.00 131.44,1931.00L132.56,1931.00Q133.00,1931.00 132.78,1931.44L132.22,1932.56Q132.00,1933.00 131.38,1933.21ZM42.00,1933.35L42.00,1933.35Q42.00,1934.00 41.78,1934.00L41.22,1934.00Q41.00,1934.00 40.94,1933.35L40.06,1923.65Q40.00,1923.00 40.44,1923.22L41.56,1923.78Q42.00,1924.00 42.16,1924.63L42.84,1927.37Q43.00,1928.00 43.44,1928.22L44.56,1928.78Q45.00,1929.00 44.78,1929.22L44.22,1929.78Q44.00,1930.00 44.22,1930.44L44.78,1931.56Q45.00,1932.00 44.46,1931.64L42.54,1930.36Q42.00,1930.00 42.00,1930.65ZM102.46,1921.36L102.46,1921.36Q103.00,1921.00 103.00,1921.44L103.00,1922.56Q103.00,1923.00 102.35,1923.00L100.65,1923.00Q100.00,1923.00 100.54,1922.64ZM84.64,1932.13L84.64,1932.13Q84.00,1932.00 83.35,1932.00L80.65,1932.00Q80.00,1932.00 80.00,1931.78L80.00,1931.22Q80.00,1931.00 79.35,1931.00L76.65,1931.00Q76.00,1931.00 76.00,1930.78L76.00,1930.22Q76.00,1930.00 76.65,1930.06L86.35,1930.94Q87.00,1931.00 87.44,1931.44L88.56,1932.56Q89.00,1933.00 88.36,1932.87ZM93.44,1930.22L93.44,1930.22Q93.00,1930.00 92.37,1929.84L89.63,1929.16Q89.00,1929.00 89.29,1928.42L90.71,1925.58Q91.00,1925.00 91.65,1925.00L93.35,1925.00Q94.00,1925.00 93.79,1925.62L93.21,1927.38Q93.00,1928.00 93.44,1928.22L94.56,1928.78Q95.00,1929.00 95.00,1929.44L95.00,1930.56Q95.00,1931.00 94.56,1930.78ZM125.36,1911.46L125.36,1911.46Q125.00,1912.00 124.78,1911.78L124.22,1911.22Q124.00,1911.00 124.54,1910.64L126.46,1909.36Q127.00,1909.00 126.64,1909.54ZM110.56,1908.44L110.56,1908.44Q111.00,1908.00 111.44,1908.00L112.56,1908.00Q113.00,1908.00 113.00,1908.22L113.00,1908.78Q113.00,1909.00 112.37,1909.16L109.63,1909.84Q109.00,1910.00 109.44,1909.56ZM116.35,1907.00L116.35,1907.00Q117.00,1907.00 117.00,1907.22L117.00,1907.78Q117.00,1908.00 116.35,1908.00L114.65,1908.00Q114.00,1908.00 114.00,1907.78L114.00,1907.22Q114.00,1907.00 114.65,1907.00ZM38.00,1901.78L38.00,1901.78Q38.00,1902.00 37.38,1902.21L35.62,1902.79Q35.00,1903.00 35.00,1902.56L35.00,1901.44Q35.00,1901.00 35.65,1901.00L37.35,1901.00Q38.00,1901.00 38.00,1901.22ZM37.00,1934.65L37.00,1934.65Q37.00,1934.00 37.22,1934.00L37.78,1934.00Q38.00,1934.00 38.00,1934.65L38.00,1936.35Q38.00,1937.00 37.78,1937.00L37.22,1937.00Q37.00,1937.00 37.00,1936.35ZM133.52,1930.61L133.52,1930.61Q133.00,1931.00 133.21,1930.38L133.79,1928.62Q134.00,1928.00 134.54,1927.64L136.46,1926.36Q137.00,1926.00 137.00,1926.44L137.00,1927.56Q137.00,1928.00 136.48,1928.39ZM97.46,1925.54L97.46,1925.54Q97.00,1926.00 96.78,1925.78L96.22,1925.22Q96.00,1925.00 96.58,1924.71L99.42,1923.29Q100.00,1923.00 99.54,1923.46ZM100.22,1914.56L100.22,1914.56Q100.00,1915.00 99.78,1915.00L99.22,1915.00Q99.00,1915.00 99.00,1914.56L99.00,1913.44Q99.00,1913.00 99.44,1913.00L100.56,1913.00Q101.00,1913.00 100.78,1913.44ZM123.22,1913.56L123.22,1913.56Q123.00,1914.00 122.46,1914.36L120.54,1915.64Q120.00,1916.00 120.39,1915.48L122.61,1912.52Q123.00,1912.00 123.22,1912.00L123.78,1912.00Q124.00,1912.00 123.78,1912.44ZM145.78,1926.78L145.78,1926.78Q146.00,1927.00 146.00,1927.65L146.00,1929.35Q146.00,1930.00 145.78,1930.00L145.22,1930.00Q145.00,1930.00 145.00,1929.35L145.00,1926.65Q145.00,1926.00 145.22,1926.22ZM119.00,1906.22L119.00,1906.22Q119.00,1906.00 119.65,1906.00L121.35,1906.00Q122.00,1906.00 122.00,1906.22L122.00,1906.78Q122.00,1907.00 121.35,1907.00L119.65,1907.00Q119.00,1907.00 119.00,1906.78ZM37.00,1930.35L37.00,1930.35Q37.00,1931.00 36.78,1931.00L36.22,1931.00Q36.00,1931.00 36.00,1930.35L36.00,1928.65Q36.00,1928.00 36.22,1928.00L36.78,1928.00Q37.00,1928.00 37.00,1928.65ZM61.56,1906.00L61.56,1906.00Q62.00,1906.00 62.22,1906.22L62.78,1906.78Q63.00,1907.00 62.35,1907.00L60.65,1907.00Q60.00,1907.00 60.00,1906.78L60.00,1906.22Q60.00,1906.00 60.44,1906.00ZM72.36,1918.92L72.36,1918.92Q73.00,1919.00 73.44,1919.00L74.56,1919.00Q75.00,1919.00 75.00,1919.22L75.00,1919.78Q75.00,1920.00 74.35,1920.00L67.65,1920.00Q67.00,1920.00 66.56,1919.56L65.44,1918.44Q65.00,1918.00 65.64,1918.08ZM144.78,1932.78L144.78,1932.78Q145.00,1933.00 145.00,1933.65L145.00,1935.35Q145.00,1936.00 144.78,1936.00L144.22,1936.00Q144.00,1936.00 144.00,1935.35L144.00,1932.65Q144.00,1932.00 144.22,1932.22ZM35.00,1922.65L35.00,1922.65Q35.00,1922.00 35.22,1922.00L35.78,1922.00Q36.00,1922.00 36.00,1922.65L36.00,1924.35Q36.00,1925.00 35.78,1925.00L35.22,1925.00Q35.00,1925.00 35.00,1924.35Z"/><path fill="#a9b8bc" fill-rule="evenodd" d="M84.65,1918.00L84.65,1918.00Q84.00,1918.00 83.35,1918.00L79.65,1918.00Q79.00,1918.00 79.00,1917.78L79.00,1917.22Q79.00,1917.00 79.65,1917.00L92.35,1917.00Q93.00,1917.00 93.00,1917.22L93.00,1917.78Q93.00,1918.00 92.35,1918.00ZM140.13,1926.36L140.13,1926.36Q140.00,1927.00 139.46,1927.36L137.54,1928.64Q137.00,1929.00 136.79,1929.62L136.21,1931.38Q136.00,1932.00 135.56,1932.00L134.44,1932.00Q134.00,1932.00 134.00,1932.44L134.00,1933.56Q134.00,1934.00 133.56,1934.44L132.44,1935.56Q132.00,1936.00 131.36,1936.13L127.64,1936.87Q127.00,1937.00 127.39,1936.48L129.61,1933.52Q130.00,1933.00 130.44,1933.00L131.56,1933.00Q132.00,1933.00 132.46,1932.54L136.54,1928.46Q137.00,1928.00 137.00,1927.56L137.00,1926.44Q137.00,1926.00 137.54,1925.64L139.46,1924.36Q140.00,1924.00 140.21,1923.38L140.79,1921.62Q141.00,1921.00 141.22,1921.22L141.78,1921.78Q142.00,1922.00 141.78,1922.00L141.22,1922.00Q141.00,1922.00 140.87,1922.64ZM44.78,1930.22L44.78,1930.22Q45.00,1930.00 44.56,1929.56L43.44,1928.44Q43.00,1928.00 43.00,1927.56L43.00,1926.44Q43.00,1926.00 43.22,1926.00L43.78,1926.00Q44.00,1926.00 44.22,1926.44L44.78,1927.56Q45.00,1928.00 45.44,1928.00L46.56,1928.00Q47.00,1928.00 47.46,1928.46L49.54,1930.54Q50.00,1931.00 49.78,1931.22L49.22,1931.78Q49.00,1932.00 48.56,1931.56L47.44,1930.44Q47.00,1930.00 47.00,1930.44L47.00,1931.56Q47.00,1932.00 47.54,1932.36L49.46,1933.64Q50.00,1934.00 50.00,1934.44L50.00,1935.56Q50.00,1936.00 49.56,1936.00L48.44,1936.00Q48.00,1936.00 48.00,1935.56L48.00,1934.44Q48.00,1934.00 47.48,1933.61L44.52,1931.39Q44.00,1931.00 44.22,1930.78ZM63.44,1908.00L63.44,1908.00Q63.00,1908.00 62.56,1908.00L61.44,1908.00Q61.00,1908.00 61.00,1907.78L61.00,1907.22Q61.00,1907.00 61.65,1907.00L64.35,1907.00Q65.00,1907.00 65.00,1907.22L65.00,1907.78Q65.00,1908.00 64.56,1908.00ZM68.35,1899.00L68.35,1899.00Q69.00,1899.00 69.00,1899.22L69.00,1899.78Q69.00,1900.00 68.35,1900.00L65.65,1900.00Q65.00,1900.00 65.00,1899.78L65.00,1899.22Q65.00,1899.00 65.65,1899.00ZM40.84,1926.37L40.84,1926.37Q41.00,1927.00 41.07,1927.65L41.93,1935.35Q42.00,1936.00 41.37,1936.16L38.63,1936.84Q38.00,1937.00 38.13,1936.36L38.87,1932.64Q39.00,1932.00 38.56,1932.44L37.44,1933.56Q37.00,1934.00 37.00,1933.35L37.00,1930.65Q37.00,1930.00 37.22,1930.00L37.78,1930.00Q38.00,1930.00 37.98,1929.35L37.02,1902.65Q37.00,1902.00 37.44,1902.22L38.56,1902.78Q39.00,1903.00 39.04,1903.65L39.96,1919.35Q40.00,1920.00 40.62,1919.79L42.38,1919.21Q43.00,1919.00 43.00,1919.44L43.00,1920.56Q43.00,1921.00 42.78,1921.00L42.22,1921.00Q42.00,1921.00 42.13,1921.64L42.87,1925.36Q43.00,1926.00 42.54,1925.54L40.46,1923.46Q40.00,1923.00 40.16,1923.63ZM77.35,1928.00L77.35,1928.00Q78.00,1928.00 78.22,1928.44L78.78,1929.56Q79.00,1930.00 78.36,1929.89L73.64,1929.11Q73.00,1929.00 73.00,1928.78L73.00,1928.22Q73.00,1928.00 73.65,1928.00ZM144.13,1916.64L144.13,1916.64Q144.00,1916.00 144.00,1915.35L144.00,1913.65Q144.00,1913.00 144.22,1913.00L144.78,1913.00Q145.00,1913.00 144.78,1912.78L144.22,1912.22Q144.00,1912.00 144.00,1911.35L144.00,1904.65Q144.00,1904.00 144.44,1903.78L145.56,1903.22Q146.00,1903.00 146.00,1903.65L146.00,1925.35Q146.00,1926.00 145.78,1926.00L145.22,1926.00Q145.00,1926.00 145.00,1926.65L145.00,1931.35Q145.00,1932.00 144.78,1932.00L144.22,1932.00Q144.00,1932.00 144.00,1932.65L144.00,1935.35Q144.00,1936.00 143.78,1936.00L143.22,1936.00Q143.00,1936.00 143.00,1935.35L143.00,1928.65Q143.00,1928.00 143.22,1928.00L143.78,1928.00Q144.00,1928.00 144.00,1927.35L144.00,1921.65Q144.00,1921.00 144.22,1921.00L144.78,1921.00Q145.00,1921.00 144.87,1920.36ZM36.00,1915.35L36.00,1915.35Q36.00,1916.00 36.00,1916.65L36.00,1921.35Q36.00,1922.00 35.78,1922.00L35.22,1922.00Q35.00,1922.00 35.00,1921.35L35.00,1903.65Q35.00,1903.00 35.22,1903.00L35.78,1903.00Q36.00,1903.00 36.00,1903.65ZM123.65,1907.00L123.65,1907.00Q123.00,1907.00 122.78,1906.78L122.22,1906.22Q122.00,1906.00 122.65,1906.00L125.35,1906.00Q126.00,1906.00 126.21,1906.62L126.79,1908.38Q127.00,1909.00 126.78,1909.00L126.22,1909.00Q126.00,1909.00 126.00,1908.56L126.00,1907.44Q126.00,1907.00 125.35,1907.00ZM99.22,1922.78L99.22,1922.78Q99.00,1923.00 99.00,1923.22L99.00,1923.78Q99.00,1924.00 98.56,1924.00L97.44,1924.00Q97.00,1924.00 97.00,1923.56L97.00,1922.44Q97.00,1922.00 97.65,1922.00L99.35,1922.00Q100.00,1922.00 99.78,1922.22ZM104.44,1913.00L104.44,1913.00Q104.00,1913.00 103.38,1913.21L101.62,1913.79Q101.00,1914.00 101.00,1913.78L101.00,1913.22Q101.00,1913.00 100.56,1913.00L99.44,1913.00Q99.00,1913.00 99.00,1912.56L99.00,1911.44Q99.00,1911.00 99.64,1911.09L105.36,1911.91Q106.00,1912.00 106.00,1912.22L106.00,1912.78Q106.00,1913.00 105.56,1913.00ZM50.65,1937.00L50.65,1937.00Q50.00,1937.00 50.54,1936.64L52.46,1935.36Q53.00,1935.00 53.44,1935.22L54.56,1935.78Q55.00,1936.00 55.00,1936.22L55.00,1936.78Q55.00,1937.00 54.35,1937.00ZM71.65,1919.00L71.65,1919.00Q71.00,1919.00 71.00,1918.78L71.00,1918.22Q71.00,1918.00 71.65,1918.00L76.35,1918.00Q77.00,1918.00 77.00,1918.22L77.00,1918.78Q77.00,1919.00 76.35,1919.00ZM87.78,1931.22L87.78,1931.22Q88.00,1931.00 88.63,1931.16L91.37,1931.84Q92.00,1932.00 91.56,1931.56L90.44,1930.44Q90.00,1930.00 90.65,1930.00L93.35,1930.00Q94.00,1930.00 94.22,1930.44L94.78,1931.56Q95.00,1932.00 94.36,1932.11L89.64,1932.89Q89.00,1933.00 89.00,1932.78L89.00,1932.22Q89.00,1932.00 88.56,1932.00L87.44,1932.00Q87.00,1932.00 87.22,1931.78ZM111.44,1910.56L111.44,1910.56Q111.00,1911.00 110.56,1911.00L109.44,1911.00Q109.00,1911.00 109.00,1910.78L109.00,1910.22Q109.00,1910.00 109.63,1909.84L112.37,1909.16Q113.00,1909.00 112.56,1909.44ZM90.22,1909.22L90.22,1909.22Q90.00,1909.00 90.21,1908.38L90.79,1906.62Q91.00,1906.00 91.44,1906.00L92.56,1906.00Q93.00,1906.00 93.00,1906.44L93.00,1907.56Q93.00,1908.00 92.56,1908.44L91.44,1909.56Q91.00,1910.00 90.78,1909.78ZM108.65,1919.00L108.65,1919.00Q108.00,1919.00 107.35,1919.00L104.65,1919.00Q104.00,1919.00 103.54,1919.46L101.46,1921.54Q101.00,1922.00 101.00,1921.56L101.00,1920.44Q101.00,1920.00 101.44,1920.00L102.56,1920.00Q103.00,1920.00 103.00,1919.56L103.00,1918.44Q103.00,1918.00 103.65,1918.00L114.35,1918.00Q115.00,1918.00 115.00,1918.22L115.00,1918.78Q115.00,1919.00 114.35,1919.00ZM65.22,1917.78L65.22,1917.78Q65.00,1918.00 64.54,1917.54L62.46,1915.46Q62.00,1915.00 62.62,1915.21L64.38,1915.79Q65.00,1916.00 65.22,1916.22L65.78,1916.78Q66.00,1917.00 65.78,1917.22ZM44.56,1912.22L44.56,1912.22Q45.00,1912.00 45.00,1912.65L45.00,1914.35Q45.00,1915.00 44.56,1915.22L43.44,1915.78Q43.00,1916.00 43.00,1915.35L43.00,1913.65Q43.00,1913.00 43.44,1912.78ZM96.35,1915.00L96.35,1915.00Q97.00,1915.00 97.22,1915.22L97.78,1915.78Q98.00,1916.00 97.35,1916.00L82.65,1916.00Q82.00,1916.00 82.00,1915.78L82.00,1915.22Q82.00,1915.00 82.65,1915.00ZM71.44,1910.44L71.44,1910.44Q71.00,1910.00 71.44,1910.00L72.56,1910.00Q73.00,1910.00 73.44,1910.44L74.56,1911.56Q75.00,1912.00 74.56,1912.00L73.44,1912.00Q73.00,1912.00 72.56,1911.56ZM118.56,1907.00L118.56,1907.00Q119.00,1907.00 119.44,1907.00L120.56,1907.00Q121.00,1907.00 121.00,1907.22L121.00,1907.78Q121.00,1908.00 120.35,1908.00L117.65,1908.00Q117.00,1908.00 117.00,1907.78L117.00,1907.22Q117.00,1907.00 117.44,1907.00ZM60.00,1906.78L60.00,1906.78Q60.00,1907.00 59.35,1907.00L56.65,1907.00Q56.00,1907.00 56.00,1906.78L56.00,1906.22Q56.00,1906.00 56.65,1906.00L59.35,1906.00Q60.00,1906.00 60.00,1906.22ZM55.54,1909.36L55.54,1909.36Q55.00,1909.00 55.00,1908.56L55.00,1907.44Q55.00,1907.00 55.22,1907.00L55.78,1907.00Q56.00,1907.00 56.00,1907.44L56.00,1908.56Q56.00,1909.00 56.44,1909.44L57.56,1910.56Q58.00,1911.00 57.46,1910.64ZM87.00,1930.78L87.00,1930.78Q87.00,1931.00 86.35,1931.00L80.65,1931.00Q80.00,1931.00 80.00,1930.78L80.00,1930.22Q80.00,1930.00 80.65,1930.00L84.35,1930.00Q85.00,1930.00 85.22,1929.56L85.78,1928.44Q86.00,1928.00 86.65,1928.00L88.35,1928.00Q89.00,1928.00 89.22,1928.44L89.78,1929.56Q90.00,1930.00 89.35,1930.00L87.65,1930.00Q87.00,1930.00 87.00,1930.22ZM81.35,1927.00L81.35,1927.00Q82.00,1927.00 82.65,1927.00L84.35,1927.00Q85.00,1927.00 85.00,1927.22L85.00,1927.78Q85.00,1928.00 84.35,1928.00L79.65,1928.00Q79.00,1928.00 79.00,1927.78L79.00,1927.22Q79.00,1927.00 79.65,1927.00ZM90.64,1912.09L90.64,1912.09Q90.00,1912.00 90.00,1911.78L90.00,1911.22Q90.00,1911.00 90.65,1911.00L92.35,1911.00Q93.00,1911.00 93.00,1911.22L93.00,1911.78Q93.00,1912.00 93.65,1912.00L96.35,1912.00Q97.00,1912.00 97.00,1912.22L97.00,1912.78Q97.00,1913.00 96.36,1912.91ZM92.56,1922.00L92.56,1922.00Q93.00,1922.00 93.00,1922.44L93.00,1923.56Q93.00,1924.00 92.78,1924.00L92.22,1924.00Q92.00,1924.00 91.78,1923.56L91.22,1922.44Q91.00,1922.00 91.44,1922.00ZM36.00,1925.65L36.00,1925.65Q36.00,1925.00 36.22,1924.78L36.78,1924.22Q37.00,1924.00 37.00,1924.65L37.00,1927.35Q37.00,1928.00 36.78,1928.00L36.22,1928.00Q36.00,1928.00 36.00,1927.35Z"/><path fill="#edf9fa" fill-rule="evenodd" d="M124.44,1910.56L124.44,1910.56Q124.00,1911.00 123.51,1911.43L116.49,1917.57Q116.00,1918.00 115.35,1918.00L103.65,1918.00Q103.00,1918.00 103.00,1917.35L103.00,1913.65Q103.00,1913.00 103.64,1912.89L108.36,1912.11Q109.00,1912.00 109.54,1911.64L114.46,1908.36Q115.00,1908.00 115.65,1907.94L125.35,1907.06Q126.00,1907.00 126.00,1907.44L126.00,1908.56Q126.00,1909.00 125.56,1909.44ZM73.40,1911.76L73.40,1911.76Q74.00,1912.00 74.44,1912.00L75.56,1912.00Q76.00,1912.00 76.54,1912.36L81.46,1915.64Q82.00,1916.00 82.65,1916.00L92.35,1916.00Q93.00,1916.00 93.00,1916.22L93.00,1916.78Q93.00,1917.00 92.35,1917.00L79.65,1917.00Q79.00,1917.00 79.00,1917.22L79.00,1917.78Q79.00,1918.00 78.35,1918.06L69.65,1918.94Q69.00,1919.00 69.00,1918.78L69.00,1918.22Q69.00,1918.00 68.35,1918.00L66.65,1918.00Q66.00,1918.00 65.78,1917.56L65.22,1916.44Q65.00,1916.00 64.56,1916.00L63.44,1916.00Q63.00,1916.00 62.54,1915.54L56.46,1909.46Q56.00,1909.00 56.00,1908.56L56.00,1907.44Q56.00,1907.00 56.65,1907.06L65.35,1907.94Q66.00,1908.00 66.00,1908.22L66.00,1908.78Q66.00,1909.00 66.65,1909.00L68.35,1909.00Q69.00,1909.00 69.00,1909.22L69.00,1909.78Q69.00,1910.00 69.60,1910.24ZM37.00,1914.35L37.00,1914.35Q37.00,1915.00 37.04,1915.65L37.96,1929.35Q38.00,1930.00 37.78,1930.00L37.22,1930.00Q37.00,1930.00 37.00,1929.35L37.00,1924.65Q37.00,1924.00 36.78,1924.00L36.22,1924.00Q36.00,1924.00 36.00,1923.35L36.00,1902.65Q36.00,1902.00 36.22,1902.00L36.78,1902.00Q37.00,1902.00 37.00,1902.65ZM52.22,1935.78L52.22,1935.78Q52.00,1936.00 51.56,1936.00L50.44,1936.00Q50.00,1936.00 50.00,1935.56L50.00,1934.44Q50.00,1934.00 49.46,1933.64L47.54,1932.36Q47.00,1932.00 47.00,1931.56L47.00,1930.44Q47.00,1930.00 47.50,1930.42L52.50,1934.58Q53.00,1935.00 52.78,1935.22ZM90.44,1932.00L90.44,1932.00Q90.00,1932.00 89.46,1931.64L87.54,1930.36Q87.00,1930.00 87.64,1930.13L91.36,1930.87Q92.00,1931.00 92.00,1931.22L92.00,1931.78Q92.00,1932.00 91.56,1932.00ZM43.64,1923.46L43.64,1923.46Q44.00,1924.00 44.29,1924.58L45.71,1927.42Q46.00,1928.00 45.46,1927.64L43.54,1926.36Q43.00,1926.00 42.87,1925.36L42.13,1921.64Q42.00,1921.00 42.36,1921.54ZM81.65,1930.00L81.65,1930.00Q81.00,1930.00 80.56,1930.00L79.44,1930.00Q79.00,1930.00 78.78,1929.56L78.22,1928.44Q78.00,1928.00 78.65,1928.00L85.35,1928.00Q86.00,1928.00 85.78,1928.44L85.22,1929.56Q85.00,1930.00 84.35,1930.00ZM90.78,1910.22L90.78,1910.22Q91.00,1910.00 91.44,1909.56L92.56,1908.44Q93.00,1908.00 93.00,1908.65L93.00,1910.35Q93.00,1911.00 92.35,1911.00L90.65,1911.00Q90.00,1911.00 90.22,1910.78ZM38.78,1932.78L38.78,1932.78Q39.00,1933.00 39.00,1933.44L39.00,1934.56Q39.00,1935.00 38.78,1935.00L38.22,1935.00Q38.00,1935.00 38.00,1934.35L38.00,1932.65Q38.00,1932.00 38.22,1932.22Z"/></svg>